solid movingWalls
  facet normal 0.1960039366 0.9805402605 0.0111019989
    outer loop
       vertex 0.0001346765717 7.069010577e-06 -0.0001
       vertex 0.0001336123158 6.828859206e-06 -6.000031726e-05
       vertex 0.0001691688714 -2.789996071e-07 -5.997177618e-05
    endloop
  endfacet
  facet normal 0.2070033878 0.9783394654 0.001219775936
    outer loop
       vertex 0.0001691688714 -2.789996071e-07 -5.997177618e-05
       vertex 0.0001692282046 -2.416472442e-07 -0.0001
       vertex 0.0001346765717 7.069010577e-06 -0.0001
    endloop
  endfacet
  facet normal 1.113443721e-06 0.9999995646 0.0009331518898
    outer loop
       vertex 0.0001692282046 -2.416472442e-07 -0.0001
       vertex 0.0001691688714 -2.789996071e-07 -5.997177618e-05
       vertex 0.0002086174011 -2.790179963e-07 -5.999913992e-05
    endloop
  endfacet
  facet normal 0.0009483216077 0.9999995503 4.277194103e-07
    outer loop
       vertex 0.0002086174011 -2.790179963e-07 -5.999913992e-05
       vertex 0.0002086354426 -2.790179963e-07 -0.0001
       vertex 0.0001692282046 -2.416472442e-07 -0.0001
    endloop
  endfacet
  facet normal 0 1 -0
    outer loop
       vertex 0.0002086354426 -2.790179963e-07 -0.0001
       vertex 0.0002086174011 -2.790179963e-07 -5.999913992e-05
       vertex 0.00025 -2.790179963e-07 -6.000346455e-05
    endloop
  endfacet
  facet normal 0 1 0
    outer loop
       vertex 0.00025 -2.790179963e-07 -6.000346455e-05
       vertex 0.00025 -2.790179963e-07 -0.0001
       vertex 0.0002086354426 -2.790179963e-07 -0.0001
    endloop
  endfacet
  facet normal 0 1 0
    outer loop
       vertex 0.0002913645574 -2.790179963e-07 -0.0001
       vertex 0.00025 -2.790179963e-07 -0.0001
       vertex 0.00025 -2.790179963e-07 -6.000346455e-05
    endloop
  endfacet
  facet normal -0 1 0
    outer loop
       vertex 0.00025 -2.790179963e-07 -6.000346455e-05
       vertex 0.0002913826006 -2.790179963e-07 -5.999914102e-05
       vertex 0.0002913645574 -2.790179963e-07 -0.0001
    endloop
  endfacet
  facet normal -0.0008770530682 0.9999991398 0.0009753314546
    outer loop
       vertex 0.0002913826006 -2.790179963e-07 -5.999914102e-05
       vertex 0.0003306973377 -2.445636513e-07 -5.997166786e-05
       vertex 0.0003306536413 -2.055610504e-07 -0.0001
    endloop
  endfacet
  facet normal -0.001869649537 0.9999982522 8.433434027e-07
    outer loop
       vertex 0.0003306536413 -2.055610504e-07 -0.0001
       vertex 0.0002913645574 -2.790179963e-07 -0.0001
       vertex 0.0002913826006 -2.790179963e-07 -5.999914102e-05
    endloop
  endfacet
  facet normal -0.211591191 0.9773575434 0.001183293357
    outer loop
       vertex 0.0003652925467 7.293523902e-06 -0.0001
       vertex 0.0003306536413 -2.055610504e-07 -0.0001
       vertex 0.0003306973377 -2.445636513e-07 -5.997166786e-05
    endloop
  endfacet
  facet normal -0.200762972 0.9795785353 0.01096003171
    outer loop
       vertex 0.0003306973377 -2.445636513e-07 -5.997166786e-05
       vertex 0.0003663505834 7.062794866e-06 -5.999721397e-05
       vertex 0.0003652925467 7.293523902e-06 -0.0001
    endloop
  endfacet
  facet normal 0.6739630954 0.7384263953 0.02236526019
    outer loop
       vertex 0.0001336123158 6.828859206e-06 -6.000031726e-05
       vertex 0.0001346765717 7.069010577e-06 -0.0001
       vertex 8.945285934e-05 4.834477396e-05 -0.0001
    endloop
  endfacet
  facet normal 0.6849537022 0.7285865943 1.889394575e-05
    outer loop
       vertex 8.945285934e-05 4.834477396e-05 -0.0001
       vertex 8.944059664e-05 4.835526488e-05 -5.999575209e-05
       vertex 0.0001336123158 6.828859206e-06 -6.000031726e-05
    endloop
  endfacet
  facet normal 0.7076686173 0.7065444976 3.163729398e-05
    outer loop
       vertex 8.944059664e-05 4.835526488e-05 -5.999575209e-05
       vertex 8.945285934e-05 4.834477396e-05 -0.0001
       vertex 4.787229414e-05 8.999149427e-05 -0.0001
    endloop
  endfacet
  facet normal 0.7076712966 0.7065418143 2.606039794e-05
    outer loop
       vertex 4.787229414e-05 8.999149427e-05 -0.0001
       vertex 4.788141814e-05 8.998088015e-05 -5.999574933e-05
       vertex 8.944059664e-05 4.835526488e-05 -5.999575209e-05
    endloop
  endfacet
  facet normal 0.7274413573 0.6861698561 1.614614044e-05
    outer loop
       vertex 6.3588925e-06 0.000134000888 -5.999843326e-05
       vertex 4.788141814e-05 8.998088015e-05 -5.999574933e-05
       vertex 4.787229414e-05 8.999149427e-05 -0.0001
    endloop
  endfacet
  facet normal 0.7376208496 0.674821036 0.02306624449
    outer loop
       vertex 4.787229414e-05 8.999149427e-05 -0.0001
       vertex 6.623403815e-06 0.0001350790655 -0.0001
       vertex 6.3588925e-06 0.000134000888 -5.999843326e-05
    endloop
  endfacet
  facet normal -0.7382179319 0.6741402607 0.0238577829
    outer loop
       vertex 0.000493625567 0.000134032793 -5.999891154e-05
       vertex 0.0004933356836 0.000135130992 -0.0001
       vertex 0.0004521204387 8.999819898e-05 -0.0001
    endloop
  endfacet
  facet normal -0.7277504028 0.6858420649 0.0001149205622
    outer loop
       vertex 0.0004521204387 8.999819898e-05 -0.0001
       vertex 0.0004521143617 8.998504748e-05 -5.999573416e-05
       vertex 0.000493625567 0.000134032793 -5.999891154e-05
    endloop
  endfacet
  facet normal 0.980559842 0.1962183352 0.0008724189066
    outer loop
       vertex 6.623403815e-06 0.0001350790655 -0.0001
       vertex -2.790179963e-07 0.0001695724661 -0.0001
       vertex -2.790179963e-07 0.0001693944951 -5.997201222e-05
    endloop
  endfacet
  facet normal 0.9828010256 0.1843113155 0.01146660849
    outer loop
       vertex -2.790179963e-07 0.0001693944951 -5.997201222e-05
       vertex 6.3588925e-06 0.000134000888 -5.999843326e-05
       vertex 6.623403815e-06 0.0001350790655 -0.0001
    endloop
  endfacet
  facet normal 1 0 0
    outer loop
       vertex -2.790179963e-07 0.0001695724661 -0.0001
       vertex -2.790179963e-07 0.0002087509042 -0.0001
       vertex -2.790179963e-07 0.0002087329111 -5.999914313e-05
    endloop
  endfacet
  facet normal 1 0 0
    outer loop
       vertex -2.790179963e-07 0.0002087329111 -5.999914313e-05
       vertex -2.790179963e-07 0.0001693944951 -5.997201222e-05
       vertex -2.790179963e-07 0.0001695724661 -0.0001
    endloop
  endfacet
  facet normal 1 0 0
    outer loop
       vertex -2.790179963e-07 0.0002087509042 -0.0001
       vertex -2.790179963e-07 0.00025 -0.0001
       vertex -2.790179963e-07 0.00025 -6.000346455e-05
    endloop
  endfacet
  facet normal 1 0 0
    outer loop
       vertex -2.790179963e-07 0.00025 -6.000346455e-05
       vertex -2.790179963e-07 0.0002087329111 -5.999914313e-05
       vertex -2.790179963e-07 0.0002087509042 -0.0001
    endloop
  endfacet
  facet normal 1 0 -0
    outer loop
       vertex -2.790179963e-07 0.0002912490958 -0.0001
       vertex -2.790179963e-07 0.0002912670889 -5.999914313e-05
       vertex -2.790179963e-07 0.00025 -6.000346455e-05
    endloop
  endfacet
  facet normal 1 0 0
    outer loop
       vertex -2.790179963e-07 0.00025 -6.000346455e-05
       vertex -2.790179963e-07 0.00025 -0.0001
       vertex -2.790179963e-07 0.0002912490958 -0.0001
    endloop
  endfacet
  facet normal 0.9999992937 -0.001188554087 5.346328608e-07
    outer loop
       vertex -2.790179963e-07 0.0002912670889 -5.999914313e-05
       vertex -2.790179963e-07 0.0002912490958 -0.0001
       vertex -2.324782702e-07 0.000330405659 -0.0001
    endloop
  endfacet
  facet normal 0.9999996321 -0.0004313357341 0.0007414302451
    outer loop
       vertex -2.324782702e-07 0.000330405659 -0.0001
       vertex -2.62165031e-07 0.0003303862468 -5.997145126e-05
       vertex -2.790179963e-07 0.0002912670889 -5.999914313e-05
    endloop
  endfacet
  facet normal 0.9833424006 -0.1814046091 0.01140574472
    outer loop
       vertex 6.573180968e-06 0.0003649219191 -0.0001
       vertex 6.308546418e-06 0.0003660024628 -5.999893103e-05
       vertex -2.62165031e-07 0.0003303862468 -5.997145126e-05
    endloop
  endfacet
  facet normal 0.981110319 -0.1934480296 0.0006338160217
    outer loop
       vertex -2.62165031e-07 0.0003303862468 -5.997145126e-05
       vertex -2.324782702e-07 0.000330405659 -0.0001
       vertex 6.573180968e-06 0.0003649219191 -0.0001
    endloop
  endfacet
  facet normal 0.743141061 -0.6687400378 0.02298097673
    outer loop
       vertex 6.308546418e-06 0.0003660024628 -5.999893103e-05
       vertex 6.573180968e-06 0.0003649219191 -0.0001
       vertex 4.746164714e-05 0.000410359453 -0.0001
    endloop
  endfacet
  facet normal 0.7330851622 -0.6801368575 -2.410118949e-06
    outer loop
       vertex 4.746164714e-05 0.000410359453 -0.0001
       vertex 4.748817446e-05 0.0004103879037 -5.999575384e-05
       vertex 6.308546418e-06 0.0003660024628 -5.999893103e-05
    endloop
  endfacet
  facet normal 0.7069658715 -0.7072476619 3.419089931e-05
    outer loop
       vertex 4.748817446e-05 0.0004103879037 -5.999575384e-05
       vertex 4.746164714e-05 0.000410359453 -0.0001
       vertex 8.911407852e-05 0.0004519952887 -0.0001
    endloop
  endfacet
  facet normal 0.7070163196 -0.7071972175 0.0001391500136
    outer loop
       vertex 8.911407852e-05 0.0004519952887 -0.0001
       vertex 8.910353828e-05 0.0004519926225 -5.999574611e-05
       vertex 4.748817446e-05 0.0004103879037 -5.999575384e-05
    endloop
  endfacet
  facet normal 0.1938837219 0.9810214388 0.002457448804
    outer loop
       vertex 0.0001336123158 6.828859206e-06 -6.000031726e-05
       vertex 0.0001334543092 6.759887737e-06 -2.000054298e-05
       vertex 0.0001690700155 -2.790179963e-07 -1.999576853e-05
    endloop
  endfacet
  facet normal 0.1960241889 0.9805989404 0.0004851955257
    outer loop
       vertex 0.0001690700155 -2.790179963e-07 -1.999576853e-05
       vertex 0.0001691688714 -2.789996071e-07 -5.997177618e-05
       vertex 0.0001336123158 6.828859206e-06 -6.000031726e-05
    endloop
  endfacet
  facet normal 3.791228855e-11 1 4.600060093e-07
    outer loop
       vertex 0.0001691688714 -2.789996071e-07 -5.997177618e-05
       vertex 0.0001690700155 -2.790179963e-07 -1.999576853e-05
       vertex 0.0002086073961 -2.790179963e-07 -1.999902708e-05
    endloop
  endfacet
  facet normal 4.661568715e-07 1 1.165971586e-10
    outer loop
       vertex 0.0002086073961 -2.790179963e-07 -1.999902708e-05
       vertex 0.0002086174011 -2.790179963e-07 -5.999913992e-05
       vertex 0.0001691688714 -2.789996071e-07 -5.997177618e-05
    endloop
  endfacet
  facet normal 0 1 -0
    outer loop
       vertex 0.0002086174011 -2.790179963e-07 -5.999913992e-05
       vertex 0.0002086073961 -2.790179963e-07 -1.999902708e-05
       vertex 0.00025 -2.790179963e-07 -2.000070853e-05
    endloop
  endfacet
  facet normal 0 1 0
    outer loop
       vertex 0.00025 -2.790179963e-07 -2.000070853e-05
       vertex 0.00025 -2.790179963e-07 -6.000346455e-05
       vertex 0.0002086174011 -2.790179963e-07 -5.999913992e-05
    endloop
  endfacet
  facet normal 0 1 0
    outer loop
       vertex 0.0002913826006 -2.790179963e-07 -5.999914102e-05
       vertex 0.00025 -2.790179963e-07 -6.000346455e-05
       vertex 0.00025 -2.790179963e-07 -2.000070853e-05
    endloop
  endfacet
  facet normal -0 1 0
    outer loop
       vertex 0.00025 -2.790179963e-07 -2.000070853e-05
       vertex 0.0002913926039 -2.790179963e-07 -1.999902708e-05
       vertex 0.0002913826006 -2.790179963e-07 -5.999914102e-05
    endloop
  endfacet
  facet normal -0.0008763720765 0.999999616 2.191646955e-07
    outer loop
       vertex 0.0003306973377 -2.445636513e-07 -5.997166786e-05
       vertex 0.0002913826006 -2.790179963e-07 -5.999914102e-05
       vertex 0.0002913926039 -2.790179963e-07 -1.999902708e-05
    endloop
  endfacet
  facet normal -0.0006162927932 0.9999997773 0.0002559528955
    outer loop
       vertex 0.0002913926039 -2.790179963e-07 -1.999902708e-05
       vertex 0.000330737792 -2.547707254e-07 -1.999554843e-05
       vertex 0.0003306973377 -2.445636513e-07 -5.997166786e-05
    endloop
  endfacet
  facet normal -0.2007822357 0.9796357937 0.0004533136331
    outer loop
       vertex 0.0003663505834 7.062794866e-06 -5.999721397e-05
       vertex 0.0003306973377 -2.445636513e-07 -5.997166786e-05
       vertex 0.000330737792 -2.547707254e-07 -1.999554843e-05
    endloop
  endfacet
  facet normal -0.1986551916 0.9800664419 0.002425763292
    outer loop
       vertex 0.000330737792 -2.547707254e-07 -1.999554843e-05
       vertex 0.0003665076662 6.995637402e-06 -1.999986928e-05
       vertex 0.0003663505834 7.062794866e-06 -5.999721397e-05
    endloop
  endfacet
  facet normal 0.6849485427 0.7285806727 0.0039619641
    outer loop
       vertex 0.0001334543092 6.759887737e-06 -2.000054298e-05
       vertex 0.0001336123158 6.828859206e-06 -6.000031726e-05
       vertex 8.944059664e-05 4.835526488e-05 -5.999575209e-05
    endloop
  endfacet
  facet normal 0.6868583858 0.7267912753 -7.59069201e-07
    outer loop
       vertex 8.944059664e-05 4.835526488e-05 -5.999575209e-05
       vertex 8.943751891e-05 4.835821528e-05 -1.999897834e-05
       vertex 0.0001334543092 6.759887737e-06 -2.000054298e-05
    endloop
  endfacet
  facet normal 0.7076712968 0.7065418145 2.336193698e-06
    outer loop
       vertex 8.943751891e-05 4.835821528e-05 -1.999897834e-05
       vertex 8.944059664e-05 4.835526488e-05 -5.999575209e-05
       vertex 4.788141814e-05 8.998088015e-05 -5.999574933e-05
    endloop
  endfacet
  facet normal 0.7076715807 0.7065415302 1.745287841e-06
    outer loop
       vertex 4.788141814e-05 8.998088015e-05 -5.999574933e-05
       vertex 4.788333172e-05 8.997886471e-05 -1.999897834e-05
       vertex 8.943751891e-05 4.835821528e-05 -1.999897834e-05
    endloop
  endfacet
  facet normal 0.7255754836 0.6881425852 -3.841915075e-08
    outer loop
       vertex 6.285177404e-06 0.0001338398342 -2.000015936e-05
       vertex 4.788333172e-05 8.997886471e-05 -1.999897834e-05
       vertex 4.788141814e-05 8.998088015e-05 -5.999574933e-05
    endloop
  endfacet
  facet normal 0.7274351084 0.686164211 0.004103484637
    outer loop
       vertex 4.788141814e-05 8.998088015e-05 -5.999574933e-05
       vertex 6.3588925e-06 0.000134000888 -5.999843326e-05
       vertex 6.285177404e-06 0.0001338398342 -2.000015936e-05
    endloop
  endfacet
  facet normal -0.7277436701 0.6858360186 0.004255132305
    outer loop
       vertex 0.0004937040486 0.0001338679066 -2.000026813e-05
       vertex 0.000493625567 0.000134032793 -5.999891154e-05
       vertex 0.0004521143617 8.998504748e-05 -5.999573416e-05
    endloop
  endfacet
  facet normal -0.7258245472 0.6878798779 1.699910567e-05
    outer loop
       vertex 0.0004521143617 8.998504748e-05 -5.999573416e-05
       vertex 0.0004521130177 8.998264093e-05 -1.99989754e-05
       vertex 0.0004937040486 0.0001338679066 -2.000026813e-05
    endloop
  endfacet
  facet normal 0.982864052 0.1843313565 0.0004541317195
    outer loop
       vertex 6.3588925e-06 0.000134000888 -5.999843326e-05
       vertex -2.790179963e-07 0.0001693944951 -5.997201222e-05
       vertex -2.790179963e-07 0.0001692960068 -1.999576489e-05
    endloop
  endfacet
  facet normal 0.983287627 0.1820411077 0.002545148679
    outer loop
       vertex -2.790179963e-07 0.0001692960068 -1.999576489e-05
       vertex 6.285177404e-06 0.0001338398342 -2.000015936e-05
       vertex 6.3588925e-06 0.000134000888 -5.999843326e-05
    endloop
  endfacet
  facet normal 1 -0 0
    outer loop
       vertex -2.790179963e-07 0.0001693944951 -5.997201222e-05
       vertex -2.790179963e-07 0.0002087329111 -5.999914313e-05
       vertex -2.790179963e-07 0.0002087229357 -1.999902786e-05
    endloop
  endfacet
  facet normal 1 0 0
    outer loop
       vertex -2.790179963e-07 0.0002087229357 -1.999902786e-05
       vertex -2.790179963e-07 0.0001692960068 -1.999576489e-05
       vertex -2.790179963e-07 0.0001693944951 -5.997201222e-05
    endloop
  endfacet
  facet normal 1 -0 0
    outer loop
       vertex -2.790179963e-07 0.0002087329111 -5.999914313e-05
       vertex -2.790179963e-07 0.00025 -6.000346455e-05
       vertex -2.790179963e-07 0.00025 -2.000070853e-05
    endloop
  endfacet
  facet normal 1 0 0
    outer loop
       vertex -2.790179963e-07 0.00025 -2.000070853e-05
       vertex -2.790179963e-07 0.0002087229357 -1.999902786e-05
       vertex -2.790179963e-07 0.0002087329111 -5.999914313e-05
    endloop
  endfacet
  facet normal 1 0 -0
    outer loop
       vertex -2.790179963e-07 0.0002912670889 -5.999914313e-05
       vertex -2.790179963e-07 0.0002912770643 -1.999902786e-05
       vertex -2.790179963e-07 0.00025 -2.000070853e-05
    endloop
  endfacet
  facet normal 1 0 0
    outer loop
       vertex -2.790179963e-07 0.00025 -2.000070853e-05
       vertex -2.790179963e-07 0.00025 -6.000346455e-05
       vertex -2.790179963e-07 0.0002912670889 -5.999914313e-05
    endloop
  endfacet
  facet normal 0.9999999541 -0.0002325485292 0.0001940883489
    outer loop
       vertex -2.62165031e-07 0.0003303862468 -5.997145126e-05
       vertex -2.699128743e-07 0.0003304337442 -1.999538654e-05
       vertex -2.790179963e-07 0.0002912770643 -1.999902786e-05
    endloop
  endfacet
  facet normal 0.9999999072 -0.0004308110812 1.074375119e-07
    outer loop
       vertex -2.790179963e-07 0.0002912770643 -1.999902786e-05
       vertex -2.790179963e-07 0.0002912670889 -5.999914313e-05
       vertex -2.62165031e-07 0.0003303862468 -5.997145126e-05
    endloop
  endfacet
  facet normal 0.9838258521 -0.1791096676 0.002533699324
    outer loop
       vertex 6.308546418e-06 0.0003660024628 -5.999893103e-05
       vertex 6.234942082e-06 0.000366163988 -2.000027274e-05
       vertex -2.699128743e-07 0.0003304337442 -1.999538654e-05
    endloop
  endfacet
  facet normal 0.9834047735 -0.1814246029 0.000406154611
    outer loop
       vertex -2.699128743e-07 0.0003304337442 -1.999538654e-05
       vertex -2.62165031e-07 0.0003303862468 -5.997145126e-05
       vertex 6.308546418e-06 0.0003660024628 -5.999893103e-05
    endloop
  endfacet
  facet normal 0.7330788677 -0.680131311 0.004095540609
    outer loop
       vertex 6.234942082e-06 0.000366163988 -2.000027274e-05
       vertex 6.308546418e-06 0.0003660024628 -5.999893103e-05
       vertex 4.748817446e-05 0.0004103879037 -5.999575384e-05
    endloop
  endfacet
  facet normal 0.7312393865 -0.6821209274 -1.751621176e-06
    outer loop
       vertex 4.748817446e-05 0.0004103879037 -5.999575384e-05
       vertex 4.748778156e-05 0.0004103873798 -1.999897834e-05
       vertex 6.234942082e-06 0.000366163988 -2.000027274e-05
    endloop
  endfacet
  facet normal 0.7070267708 -0.7071867825 -2.317795271e-06
    outer loop
       vertex 8.909879398e-05 0.0004519889771 -1.999897722e-05
       vertex 4.748778156e-05 0.0004103873798 -1.999897834e-05
       vertex 4.748817446e-05 0.0004103879037 -5.999575384e-05
    endloop
  endfacet
  facet normal 0.7070163264 -0.7071972242 1.940858768e-05
    outer loop
       vertex 4.748817446e-05 0.0004103879037 -5.999575384e-05
       vertex 8.910353828e-05 0.0004519926225 -5.999574611e-05
       vertex 8.909879398e-05 0.0004519889771 -1.999897722e-05
    endloop
  endfacet
  facet normal 0.1938846244 0.9810243383 9.074230367e-10
    outer loop
       vertex 0.0001690700155 -2.790179963e-07 -1.999576853e-05
       vertex 0.0001334543092 6.759887737e-06 -2.000054298e-05
       vertex 0.0001334543092 6.7598877e-06 2.000053567e-05
    endloop
  endfacet
  facet normal 0.1938846234 0.9810243385 0
    outer loop
       vertex 0.0001334543092 6.7598877e-06 2.000053567e-05
       vertex 0.0001690700155 -2.790179963e-07 1.999576853e-05
       vertex 0.0001690700155 -2.790179963e-07 -1.999576853e-05
    endloop
  endfacet
  facet normal 0 1 0
    outer loop
       vertex 0.0001690700155 -2.790179963e-07 -1.999576853e-05
       vertex 0.0001690700155 -2.790179963e-07 1.999576853e-05
       vertex 0.0002086073961 -2.790179963e-07 1.999902708e-05
    endloop
  endfacet
  facet normal 0 1 0
    outer loop
       vertex 0.0002086073961 -2.790179963e-07 1.999902708e-05
       vertex 0.0002086073961 -2.790179963e-07 -1.999902708e-05
       vertex 0.0001690700155 -2.790179963e-07 -1.999576853e-05
    endloop
  endfacet
  facet normal 0 1 0
    outer loop
       vertex 0.0002086073961 -2.790179963e-07 -1.999902708e-05
       vertex 0.0002086073961 -2.790179963e-07 1.999902708e-05
       vertex 0.00025 -2.790179963e-07 2.000070853e-05
    endloop
  endfacet
  facet normal 0 1 0
    outer loop
       vertex 0.00025 -2.790179963e-07 2.000070853e-05
       vertex 0.00025 -2.790179963e-07 -2.000070853e-05
       vertex 0.0002086073961 -2.790179963e-07 -1.999902708e-05
    endloop
  endfacet
  facet normal 0 1 0
    outer loop
       vertex 0.0002913926039 -2.790179963e-07 1.999902708e-05
       vertex 0.0002913926039 -2.790179963e-07 -1.999902708e-05
       vertex 0.00025 -2.790179963e-07 -2.000070853e-05
    endloop
  endfacet
  facet normal 0 1 0
    outer loop
       vertex 0.00025 -2.790179963e-07 -2.000070853e-05
       vertex 0.00025 -2.790179963e-07 2.000070853e-05
       vertex 0.0002913926039 -2.790179963e-07 1.999902708e-05
    endloop
  endfacet
  facet normal -0.0006162701836 0.9999998101 0
    outer loop
       vertex 0.000330737792 -2.547707254e-07 -1.999554843e-05
       vertex 0.0002913926039 -2.790179963e-07 -1.999902708e-05
       vertex 0.0002913926039 -2.790179963e-07 1.999902708e-05
    endloop
  endfacet
  facet normal -0.0006162672936 0.9999998101 2.843131892e-09
    outer loop
       vertex 0.0002913926039 -2.790179963e-07 1.999902708e-05
       vertex 0.000330737792 -2.547708391e-07 1.999555388e-05
       vertex 0.000330737792 -2.547707254e-07 -1.999554843e-05
    endloop
  endfacet
  facet normal -0.1986560591 0.9800692681 2.786466722e-09
    outer loop
       vertex 0.000330737792 -2.547707254e-07 -1.999554843e-05
       vertex 0.000330737792 -2.547708391e-07 1.999555388e-05
       vertex 0.0003665076663 6.995637366e-06 1.999986243e-05
    endloop
  endfacet
  facet normal -0.1986560576 0.9800692684 1.378711637e-09
    outer loop
       vertex 0.0003665076663 6.995637366e-06 1.999986243e-05
       vertex 0.0003665076662 6.995637402e-06 -1.999986928e-05
       vertex 0.000330737792 -2.547707254e-07 -1.999554843e-05
    endloop
  endfacet
  facet normal 0.6868583861 0.726791275 -0
    outer loop
       vertex 8.943751891e-05 4.835821528e-05 -1.999897834e-05
       vertex 8.943751891e-05 4.835821528e-05 1.999897834e-05
       vertex 0.0001334543092 6.7598877e-06 2.000053567e-05
    endloop
  endfacet
  facet normal 0.6868583858 0.7267912753 6.722638017e-10
    outer loop
       vertex 0.0001334543092 6.7598877e-06 2.000053567e-05
       vertex 0.0001334543092 6.759887737e-06 -2.000054298e-05
       vertex 8.943751891e-05 4.835821528e-05 -1.999897834e-05
    endloop
  endfacet
  facet normal 0.7076715807 0.7065415302 0
    outer loop
       vertex 8.943751891e-05 4.835821528e-05 -1.999897834e-05
       vertex 4.788333172e-05 8.997886471e-05 -1.999897834e-05
       vertex 4.788333172e-05 8.997886471e-05 1.999897834e-05
    endloop
  endfacet
  facet normal 0.7076715807 0.7065415302 0
    outer loop
       vertex 4.788333172e-05 8.997886471e-05 1.999897834e-05
       vertex 8.943751891e-05 4.835821528e-05 1.999897834e-05
       vertex 8.943751891e-05 4.835821528e-05 -1.999897834e-05
    endloop
  endfacet
  facet normal 0.7255754836 0.6881425852 6.348735808e-10
    outer loop
       vertex 4.788333172e-05 8.997886471e-05 -1.999897834e-05
       vertex 6.285177404e-06 0.0001338398342 -2.000015936e-05
       vertex 6.285177369e-06 0.0001338398342 2.000015259e-05
    endloop
  endfacet
  facet normal 0.7255754833 0.6881425855 0
    outer loop
       vertex 6.285177369e-06 0.0001338398342 2.000015259e-05
       vertex 4.788333172e-05 8.997886471e-05 1.999897834e-05
       vertex 4.788333172e-05 8.997886471e-05 -1.999897834e-05
    endloop
  endfacet
  facet normal -0.7258245475 0.6878798777 0
    outer loop
       vertex 0.0004521130177 8.998264093e-05 -1.99989754e-05
       vertex 0.0004521130177 8.998264093e-05 1.99989754e-05
       vertex 0.0004937040486 0.0001338679066 2.000025957e-05
    endloop
  endfacet
  facet normal -0.7258245475 0.6878798777 0
    outer loop
       vertex 0.0004937040486 0.0001338679066 2.000025957e-05
       vertex 0.0004937040486 0.0001338679066 -2.000026813e-05
       vertex 0.0004521130177 8.998264093e-05 -1.99989754e-05
    endloop
  endfacet
  facet normal 0.9832907554 0.1820420013 -0
    outer loop
       vertex -2.790179963e-07 0.0001692960068 -1.999576489e-05
       vertex -2.790179963e-07 0.0001692960068 1.999576489e-05
       vertex 6.285177369e-06 0.0001338398342 2.000015259e-05
    endloop
  endfacet
  facet normal 0.9832907553 0.1820420023 8.603727068e-10
    outer loop
       vertex 6.285177369e-06 0.0001338398342 2.000015259e-05
       vertex 6.285177404e-06 0.0001338398342 -2.000015936e-05
       vertex -2.790179963e-07 0.0001692960068 -1.999576489e-05
    endloop
  endfacet
  facet normal 1 -0 0
    outer loop
       vertex -2.790179963e-07 0.0001692960068 -1.999576489e-05
       vertex -2.790179963e-07 0.0002087229357 -1.999902786e-05
       vertex -2.790179963e-07 0.0002087229357 1.999902786e-05
    endloop
  endfacet
  facet normal 1 0 0
    outer loop
       vertex -2.790179963e-07 0.0002087229357 1.999902786e-05
       vertex -2.790179963e-07 0.0001692960068 1.999576489e-05
       vertex -2.790179963e-07 0.0001692960068 -1.999576489e-05
    endloop
  endfacet
  facet normal 1 -0 0
    outer loop
       vertex -2.790179963e-07 0.0002087229357 -1.999902786e-05
       vertex -2.790179963e-07 0.00025 -2.000070853e-05
       vertex -2.790179963e-07 0.00025 2.000070853e-05
    endloop
  endfacet
  facet normal 1 0 0
    outer loop
       vertex -2.790179963e-07 0.00025 2.000070853e-05
       vertex -2.790179963e-07 0.0002087229357 1.999902786e-05
       vertex -2.790179963e-07 0.0002087229357 -1.999902786e-05
    endloop
  endfacet
  facet normal 1 0 -0
    outer loop
       vertex -2.790179963e-07 0.0002912770643 -1.999902786e-05
       vertex -2.790179963e-07 0.0002912770643 1.999902786e-05
       vertex -2.790179963e-07 0.00025 2.000070853e-05
    endloop
  endfacet
  facet normal 1 0 0
    outer loop
       vertex -2.790179963e-07 0.00025 2.000070853e-05
       vertex -2.790179963e-07 0.00025 -2.000070853e-05
       vertex -2.790179963e-07 0.0002912770643 -1.999902786e-05
    endloop
  endfacet
  facet normal 0.999999973 -0.0002325275807 2.843154986e-09
    outer loop
       vertex -2.699128743e-07 0.0003304337442 -1.999538654e-05
       vertex -2.69912988e-07 0.0003304337442 1.999539745e-05
       vertex -2.790179963e-07 0.0002912770643 1.999902786e-05
    endloop
  endfacet
  facet normal 0.999999973 -0.0002325304846 0
    outer loop
       vertex -2.790179963e-07 0.0002912770643 1.999902786e-05
       vertex -2.790179963e-07 0.0002912770643 -1.999902786e-05
       vertex -2.699128743e-07 0.0003304337442 -1.999538654e-05
    endloop
  endfacet
  facet normal 0.983828949 -0.1791105779 9.100295035e-10
    outer loop
       vertex -2.699128743e-07 0.0003304337442 -1.999538654e-05
       vertex 6.234942082e-06 0.000366163988 -2.000027274e-05
       vertex 6.234942045e-06 0.000366163988 2.000026623e-05
    endloop
  endfacet
  facet normal 0.9838289486 -0.1791105799 2.797178246e-09
    outer loop
       vertex 6.234942045e-06 0.000366163988 2.000026623e-05
       vertex -2.69912988e-07 0.0003304337442 1.999539745e-05
       vertex -2.699128743e-07 0.0003304337442 -1.999538654e-05
    endloop
  endfacet
  facet normal 0.7312393862 -0.6821209278 0
    outer loop
       vertex 4.748778156e-05 0.0004103873798 -1.999897834e-05
       vertex 4.748778156e-05 0.0004103873798 1.999897834e-05
       vertex 6.234942045e-06 0.000366163988 2.000026623e-05
    endloop
  endfacet
  facet normal 0.7312393865 -0.6821209275 6.763873192e-10
    outer loop
       vertex 6.234942045e-06 0.000366163988 2.000026623e-05
       vertex 6.234942082e-06 0.000366163988 -2.000027274e-05
       vertex 4.748778156e-05 0.0004103873798 -1.999897834e-05
    endloop
  endfacet
  facet normal 0.7070267708 -0.7071867825 0
    outer loop
       vertex 8.909879398e-05 0.0004519889771 -1.999897722e-05
       vertex 8.909879398e-05 0.0004519889771 1.999897722e-05
       vertex 4.748778156e-05 0.0004103873798 1.999897834e-05
    endloop
  endfacet
  facet normal 0.7070267708 -0.7071867825 0
    outer loop
       vertex 4.748778156e-05 0.0004103873798 1.999897834e-05
       vertex 4.748778156e-05 0.0004103873798 -1.999897834e-05
       vertex 8.909879398e-05 0.0004519889771 -1.999897722e-05
    endloop
  endfacet
  facet normal 0.1960203209 0.9805997136 -0.0004851817681
    outer loop
       vertex 0.0001336122962 6.828717095e-06 6.000031898e-05
       vertex 0.0001691688714 -2.78999777e-07 5.997177826e-05
       vertex 0.0001690700155 -2.790179963e-07 1.999576853e-05
    endloop
  endfacet
  facet normal 0.1938837236 0.9810214474 -0.002453868807
    outer loop
       vertex 0.0001690700155 -2.790179963e-07 1.999576853e-05
       vertex 0.0001334543092 6.7598877e-06 2.000053567e-05
       vertex 0.0001336122962 6.828717095e-06 6.000031898e-05
    endloop
  endfacet
  facet normal 4.618499929e-07 1 -1.155199036e-10
    outer loop
       vertex 0.0001691688714 -2.78999777e-07 5.997177826e-05
       vertex 0.0002086174011 -2.790179963e-07 5.999913992e-05
       vertex 0.0002086073961 -2.790179963e-07 1.999902708e-05
    endloop
  endfacet
  facet normal 3.756201046e-11 1 -4.557559355e-07
    outer loop
       vertex 0.0002086073961 -2.790179963e-07 1.999902708e-05
       vertex 0.0001690700155 -2.790179963e-07 1.999576853e-05
       vertex 0.0001691688714 -2.78999777e-07 5.997177826e-05
    endloop
  endfacet
  facet normal -0 1 0
    outer loop
       vertex 0.0002086174011 -2.790179963e-07 5.999913992e-05
       vertex 0.00025 -2.790179963e-07 6.000346455e-05
       vertex 0.00025 -2.790179963e-07 2.000070853e-05
    endloop
  endfacet
  facet normal 0 1 0
    outer loop
       vertex 0.00025 -2.790179963e-07 2.000070853e-05
       vertex 0.0002086073961 -2.790179963e-07 1.999902708e-05
       vertex 0.0002086174011 -2.790179963e-07 5.999913992e-05
    endloop
  endfacet
  facet normal 0 1 0
    outer loop
       vertex 0.0002913826006 -2.790179963e-07 5.999914102e-05
       vertex 0.0002913926039 -2.790179963e-07 1.999902708e-05
       vertex 0.00025 -2.790179963e-07 2.000070853e-05
    endloop
  endfacet
  facet normal 0 1 0
    outer loop
       vertex 0.00025 -2.790179963e-07 2.000070853e-05
       vertex 0.00025 -2.790179963e-07 6.000346455e-05
       vertex 0.0002913826006 -2.790179963e-07 5.999914102e-05
    endloop
  endfacet
  facet normal -0.0006162898673 0.9999997773 -0.0002559458182
    outer loop
       vertex 0.0003306973377 -2.445640492e-07 5.997166787e-05
       vertex 0.000330737792 -2.547708391e-07 1.999555388e-05
       vertex 0.0002913926039 -2.790179963e-07 1.999902708e-05
    endloop
  endfacet
  facet normal -0.0008763619556 0.999999616 -2.191621645e-07
    outer loop
       vertex 0.0002913926039 -2.790179963e-07 1.999902708e-05
       vertex 0.0002913826006 -2.790179963e-07 5.999914102e-05
       vertex 0.0003306973377 -2.445640492e-07 5.997166787e-05
    endloop
  endfacet
  facet normal -0.1986551963 0.9800664505 -0.002421920773
    outer loop
       vertex 0.0003663506062 7.062642635e-06 5.999721586e-05
       vertex 0.0003665076663 6.995637366e-06 1.999986243e-05
       vertex 0.000330737792 -2.547708391e-07 1.999555388e-05
    endloop
  endfacet
  facet normal -0.2007781087 0.9796366396 -0.0004533027699
    outer loop
       vertex 0.000330737792 -2.547708391e-07 1.999555388e-05
       vertex 0.0003306973377 -2.445640492e-07 5.997166787e-05
       vertex 0.0003663506062 7.062642635e-06 5.999721586e-05
    endloop
  endfacet
  facet normal 0.6868583861 0.726791275 8.252124938e-07
    outer loop
       vertex 0.0001334543092 6.7598877e-06 2.000053567e-05
       vertex 8.943751891e-05 4.835821528e-05 1.999897834e-05
       vertex 8.944059664e-05 4.835526124e-05 5.999575214e-05
    endloop
  endfacet
  facet normal 0.6849499243 0.7285793897 -0.003959043005
    outer loop
       vertex 8.944059664e-05 4.835526124e-05 5.999575214e-05
       vertex 0.0001336122962 6.828717095e-06 6.000031898e-05
       vertex 0.0001334543092 6.7598877e-06 2.000053567e-05
    endloop
  endfacet
  facet normal 0.7076715807 0.7065415302 -1.680884529e-06
    outer loop
       vertex 8.943751891e-05 4.835821528e-05 1.999897834e-05
       vertex 4.788333172e-05 8.997886471e-05 1.999897834e-05
       vertex 4.78814145e-05 8.998088015e-05 5.999574933e-05
    endloop
  endfacet
  facet normal 0.7076712968 0.7065418146 -2.271893196e-06
    outer loop
       vertex 4.78814145e-05 8.998088015e-05 5.999574933e-05
       vertex 8.944059664e-05 4.835526124e-05 5.999575214e-05
       vertex 8.943751891e-05 4.835821528e-05 1.999897834e-05
    endloop
  endfacet
  facet normal 0.7274337778 0.6861656397 -0.004100467709
    outer loop
       vertex 6.285177369e-06 0.0001338398342 2.000015259e-05
       vertex 6.358744745e-06 0.0001340008686 5.999843522e-05
       vertex 4.78814145e-05 8.998088015e-05 5.999574933e-05
    endloop
  endfacet
  facet normal 0.7255754833 0.6881425855 1.04451821e-07
    outer loop
       vertex 4.78814145e-05 8.998088015e-05 5.999574933e-05
       vertex 4.788333172e-05 8.997886471e-05 1.999897834e-05
       vertex 6.285177369e-06 0.0001338398342 2.000015259e-05
    endloop
  endfacet
  facet normal -0.7258245472 0.6878798779 -1.699740412e-05
    outer loop
       vertex 0.0004937040486 0.0001338679066 2.000025957e-05
       vertex 0.0004521130177 8.998264093e-05 1.99989754e-05
       vertex 0.0004521143644 8.998505023e-05 5.999573416e-05
    endloop
  endfacet
  facet normal -0.727741955 0.6858378622 -0.004251323212
    outer loop
       vertex 0.0004521143644 8.998505023e-05 5.999573416e-05
       vertex 0.0004936257557 0.0001340327709 5.99989138e-05
       vertex 0.0004937040486 0.0001338679066 2.000025957e-05
    endloop
  endfacet
  facet normal 0.9832876363 0.1820411094 -0.002541428416
    outer loop
       vertex 6.358744745e-06 0.0001340008686 5.999843522e-05
       vertex 6.285177369e-06 0.0001338398342 2.000015259e-05
       vertex -2.790179963e-07 0.0001692960068 1.999576489e-05
    endloop
  endfacet
  facet normal 0.9828648137 0.1843272952 -0.0004541217138
    outer loop
       vertex -2.790179963e-07 0.0001692960068 1.999576489e-05
       vertex -2.790179963e-07 0.0001693944951 5.997201222e-05
       vertex 6.358744745e-06 0.0001340008686 5.999843522e-05
    endloop
  endfacet
  facet normal 1 0 0
    outer loop
       vertex -2.790179963e-07 0.0001693944951 5.997201222e-05
       vertex -2.790179963e-07 0.0001692960068 1.999576489e-05
       vertex -2.790179963e-07 0.0002087229357 1.999902786e-05
    endloop
  endfacet
  facet normal 1 0 -0
    outer loop
       vertex -2.790179963e-07 0.0002087229357 1.999902786e-05
       vertex -2.790179963e-07 0.0002087329111 5.999914313e-05
       vertex -2.790179963e-07 0.0001693944951 5.997201222e-05
    endloop
  endfacet
  facet normal 1 0 0
    outer loop
       vertex -2.790179963e-07 0.0002087329111 5.999914313e-05
       vertex -2.790179963e-07 0.0002087229357 1.999902786e-05
       vertex -2.790179963e-07 0.00025 2.000070853e-05
    endloop
  endfacet
  facet normal 1 0 -0
    outer loop
       vertex -2.790179963e-07 0.00025 2.000070853e-05
       vertex -2.790179963e-07 0.00025 6.000346455e-05
       vertex -2.790179963e-07 0.0002087329111 5.999914313e-05
    endloop
  endfacet
  facet normal 1 0 0
    outer loop
       vertex -2.790179963e-07 0.0002912670889 5.999914313e-05
       vertex -2.790179963e-07 0.00025 6.000346455e-05
       vertex -2.790179963e-07 0.00025 2.000070853e-05
    endloop
  endfacet
  facet normal 1 -0 0
    outer loop
       vertex -2.790179963e-07 0.00025 2.000070853e-05
       vertex -2.790179963e-07 0.0002912770643 1.999902786e-05
       vertex -2.790179963e-07 0.0002912670889 5.999914313e-05
    endloop
  endfacet
  facet normal 0.9999999072 -0.0004308285177 -1.074418603e-07
    outer loop
       vertex -2.621643489e-07 0.0003303862468 5.997145126e-05
       vertex -2.790179963e-07 0.0002912670889 5.999914313e-05
       vertex -2.790179963e-07 0.0002912770643 1.999902786e-05
    endloop
  endfacet
  facet normal 0.9999999541 -0.0002325455733 -0.0001941083052
    outer loop
       vertex -2.790179963e-07 0.0002912770643 1.999902786e-05
       vertex -2.69912988e-07 0.0003304337442 1.999539745e-05
       vertex -2.621643489e-07 0.0003303862468 5.997145126e-05
    endloop
  endfacet
  facet normal 0.9834054732 -0.1814208101 -0.0004061699277
    outer loop
       vertex 6.308408309e-06 0.0003660024804 5.999893247e-05
       vertex -2.621643489e-07 0.0003303862468 5.997145126e-05
       vertex -2.69912988e-07 0.0003304337442 1.999539745e-05
    endloop
  endfacet
  facet normal 0.9838258601 -0.1791096729 -0.002530223962
    outer loop
       vertex -2.69912988e-07 0.0003304337442 1.999539745e-05
       vertex 6.234942045e-06 0.000366163988 2.000026623e-05
       vertex 6.308408309e-06 0.0003660024804 5.999893247e-05
    endloop
  endfacet
  facet normal 0.7312393862 -0.6821209278 1.751621183e-06
    outer loop
       vertex 6.234942045e-06 0.000366163988 2.000026623e-05
       vertex 4.748778156e-05 0.0004103873798 1.999897834e-05
       vertex 4.748817446e-05 0.0004103879037 5.999575384e-05
    endloop
  endfacet
  facet normal 0.7330776044 -0.6801326897 -0.004092713248
    outer loop
       vertex 4.748817446e-05 0.0004103879037 5.999575384e-05
       vertex 6.308408309e-06 0.0003660024804 5.999893247e-05
       vertex 6.234942045e-06 0.000366163988 2.000026623e-05
    endloop
  endfacet
  facet normal 0.7070163254 -0.7071972251 -1.941052878e-05
    outer loop
       vertex 8.909879398e-05 0.0004519889771 1.999897722e-05
       vertex 8.910353909e-05 0.0004519926232 5.999574611e-05
       vertex 4.748817446e-05 0.0004103879037 5.999575384e-05
    endloop
  endfacet
  facet normal 0.7070267708 -0.7071867825 2.317795271e-06
    outer loop
       vertex 4.748817446e-05 0.0004103879037 5.999575384e-05
       vertex 4.748778156e-05 0.0004103873798 1.999897834e-05
       vertex 8.909879398e-05 0.0004519889771 1.999897722e-05
    endloop
  endfacet
  facet normal 0.2070024403 0.9783396693 -0.001216994034
    outer loop
       vertex 0.0001346765447 7.068867362e-06 0.0001
       vertex 0.0001692281821 -2.417564263e-07 0.0001
       vertex 0.0001691688714 -2.78999777e-07 5.997177826e-05
    endloop
  endfacet
  facet normal 0.1960000694 0.9805410353 -0.01110183781
    outer loop
       vertex 0.0001691688714 -2.78999777e-07 5.997177826e-05
       vertex 0.0001336122962 6.828717095e-06 6.000031898e-05
       vertex 0.0001346765447 7.068867362e-06 0.0001
    endloop
  endfacet
  facet normal 0.0009455504613 0.999999553 -4.264695462e-07
    outer loop
       vertex 0.0001692281821 -2.417564263e-07 0.0001
       vertex 0.0002086354426 -2.790179963e-07 0.0001
       vertex 0.0002086174011 -2.790179963e-07 5.999913992e-05
    endloop
  endfacet
  facet normal 1.107198723e-06 0.9999995672 -0.0009304285484
    outer loop
       vertex 0.0002086174011 -2.790179963e-07 5.999913992e-05
       vertex 0.0001691688714 -2.78999777e-07 5.997177826e-05
       vertex 0.0001692281821 -2.417564263e-07 0.0001
    endloop
  endfacet
  facet normal -0 1 0
    outer loop
       vertex 0.0002086354426 -2.790179963e-07 0.0001
       vertex 0.00025 -2.790179963e-07 0.0001
       vertex 0.00025 -2.790179963e-07 6.000346455e-05
    endloop
  endfacet
  facet normal 0 1 0
    outer loop
       vertex 0.00025 -2.790179963e-07 6.000346455e-05
       vertex 0.0002086174011 -2.790179963e-07 5.999913992e-05
       vertex 0.0002086354426 -2.790179963e-07 0.0001
    endloop
  endfacet
  facet normal 0 1 0
    outer loop
       vertex 0.0002913645574 -2.790179963e-07 0.0001
       vertex 0.0002913826006 -2.790179963e-07 5.999914102e-05
       vertex 0.00025 -2.790179963e-07 6.000346455e-05
    endloop
  endfacet
  facet normal 0 1 0
    outer loop
       vertex 0.00025 -2.790179963e-07 6.000346455e-05
       vertex 0.00025 -2.790179963e-07 0.0001
       vertex 0.0002913645574 -2.790179963e-07 0.0001
    endloop
  endfacet
  facet normal -0.001869568278 0.9999982524 -8.433067492e-07
    outer loop
       vertex 0.0002913826006 -2.790179963e-07 5.999914102e-05
       vertex 0.0002913645574 -2.790179963e-07 0.0001
       vertex 0.0003306536413 -2.05564243e-07 0.0001
    endloop
  endfacet
  facet normal -0.0008770428983 0.9999991398 -0.0009752616258
    outer loop
       vertex 0.0003306536413 -2.05564243e-07 0.0001
       vertex 0.0003306973377 -2.445640492e-07 5.997166787e-05
       vertex 0.0002913826006 -2.790179963e-07 5.999914102e-05
    endloop
  endfacet
  facet normal -0.2007588446 0.9795793808 -0.01096006152
    outer loop
       vertex 0.0003652925651 7.293376224e-06 0.0001
       vertex 0.0003663506062 7.062642635e-06 5.999721586e-05
       vertex 0.0003306973377 -2.445640492e-07 5.997166787e-05
    endloop
  endfacet
  facet normal -0.2115871894 0.9773584098 -0.001183221596
    outer loop
       vertex 0.0003306973377 -2.445640492e-07 5.997166787e-05
       vertex 0.0003306536413 -2.05564243e-07 0.0001
       vertex 0.0003652925651 7.293376224e-06 0.0001
    endloop
  endfacet
  facet normal 0.684955076 0.7285853028 -1.902510512e-05
    outer loop
       vertex 0.0001336122962 6.828717095e-06 6.000031898e-05
       vertex 8.944059664e-05 4.835526124e-05 5.999575214e-05
       vertex 8.945286118e-05 4.834477575e-05 0.0001
    endloop
  endfacet
  facet normal 0.6739646232 0.7384250042 -0.02236514838
    outer loop
       vertex 8.945286118e-05 4.834477575e-05 0.0001
       vertex 0.0001346765447 7.068867362e-06 0.0001
       vertex 0.0001336122962 6.828717095e-06 6.000031898e-05
    endloop
  endfacet
  facet normal 0.7076712965 0.7065418143 -2.612478978e-05
    outer loop
       vertex 8.944059664e-05 4.835526124e-05 5.999575214e-05
       vertex 4.78814145e-05 8.998088015e-05 5.999574933e-05
       vertex 4.787229416e-05 8.999149425e-05 0.0001
    endloop
  endfacet
  facet normal 0.7076685864 0.7065445285 -3.176572901e-05
    outer loop
       vertex 4.787229416e-05 8.999149425e-05 0.0001
       vertex 8.945286118e-05 4.834477575e-05 0.0001
       vertex 8.944059664e-05 4.835526124e-05 5.999575214e-05
    endloop
  endfacet
  facet normal 0.7376195701 0.6748224279 -0.02306643825
    outer loop
       vertex 6.358744745e-06 0.0001340008686 5.999843522e-05
       vertex 6.623261454e-06 0.0001350790499 0.0001
       vertex 4.787229416e-05 8.999149425e-05 0.0001
    endloop
  endfacet
  facet normal 0.7274400176 0.6861712764 -1.621303346e-05
    outer loop
       vertex 4.787229416e-05 8.999149425e-05 0.0001
       vertex 4.78814145e-05 8.998088015e-05 5.999574933e-05
       vertex 6.358744745e-06 0.0001340008686 5.999843522e-05
    endloop
  endfacet
  facet normal -0.7277486759 0.6858438974 -0.000114796331
    outer loop
       vertex 0.0004936257557 0.0001340327709 5.99989138e-05
       vertex 0.0004521143644 8.998505023e-05 5.999573416e-05
       vertex 0.000452120442 8.999819507e-05 0.0001
    endloop
  endfacet
  facet normal -0.7382163232 0.674142018 -0.02385790871
    outer loop
       vertex 0.000452120442 8.999819507e-05 0.0001
       vertex 0.0004933358711 0.0001351309738 0.0001
       vertex 0.0004936257557 0.0001340327709 5.99989138e-05
    endloop
  endfacet
  facet normal 0.9828017868 0.1843072537 -0.01146665465
    outer loop
       vertex 6.623261454e-06 0.0001350790499 0.0001
       vertex 6.358744745e-06 0.0001340008686 5.999843522e-05
       vertex -2.790179963e-07 0.0001693944951 5.997201222e-05
    endloop
  endfacet
  facet normal 0.9805606378 0.1962143587 -0.0008724012266
    outer loop
       vertex -2.790179963e-07 0.0001693944951 5.997201222e-05
       vertex -2.790179963e-07 0.0001695724661 0.0001
       vertex 6.623261454e-06 0.0001350790499 0.0001
    endloop
  endfacet
  facet normal 1 0 0
    outer loop
       vertex -2.790179963e-07 0.0001695724661 0.0001
       vertex -2.790179963e-07 0.0001693944951 5.997201222e-05
       vertex -2.790179963e-07 0.0002087329111 5.999914313e-05
    endloop
  endfacet
  facet normal 1 0 -0
    outer loop
       vertex -2.790179963e-07 0.0002087329111 5.999914313e-05
       vertex -2.790179963e-07 0.0002087509042 0.0001
       vertex -2.790179963e-07 0.0001695724661 0.0001
    endloop
  endfacet
  facet normal 1 0 0
    outer loop
       vertex -2.790179963e-07 0.0002087509042 0.0001
       vertex -2.790179963e-07 0.0002087329111 5.999914313e-05
       vertex -2.790179963e-07 0.00025 6.000346455e-05
    endloop
  endfacet
  facet normal 1 0 -0
    outer loop
       vertex -2.790179963e-07 0.00025 6.000346455e-05
       vertex -2.790179963e-07 0.00025 0.0001
       vertex -2.790179963e-07 0.0002087509042 0.0001
    endloop
  endfacet
  facet normal 1 0 0
    outer loop
       vertex -2.790179963e-07 0.0002912490958 0.0001
       vertex -2.790179963e-07 0.00025 0.0001
       vertex -2.790179963e-07 0.00025 6.000346455e-05
    endloop
  endfacet
  facet normal 1 -0 0
    outer loop
       vertex -2.790179963e-07 0.00025 6.000346455e-05
       vertex -2.790179963e-07 0.0002912670889 5.999914313e-05
       vertex -2.790179963e-07 0.0002912490958 0.0001
    endloop
  endfacet
  facet normal 0.9999996322 -0.0004313531251 -0.0007413659776
    outer loop
       vertex -2.790179963e-07 0.0002912670889 5.999914313e-05
       vertex -2.621643489e-07 0.0003303862468 5.997145126e-05
       vertex -2.324801603e-07 0.000330405659 0.0001
    endloop
  endfacet
  facet normal 0.9999992937 -0.001188505817 -5.34611148e-07
    outer loop
       vertex -2.324801603e-07 0.000330405659 0.0001
       vertex -2.790179963e-07 0.0002912490958 0.0001
       vertex -2.790179963e-07 0.0002912670889 5.999914313e-05
    endloop
  endfacet
  facet normal 0.9811110837 -0.1934441516 -0.0006337554242
    outer loop
       vertex 6.573040318e-06 0.0003649219342 0.0001
       vertex -2.324801603e-07 0.000330405659 0.0001
       vertex -2.621643489e-07 0.0003303862468 5.997145126e-05
    endloop
  endfacet
  facet normal 0.9833431019 -0.1814008166 -0.0114055962
    outer loop
       vertex -2.621643489e-07 0.0003303862468 5.997145126e-05
       vertex 6.308408309e-06 0.0003660024804 5.999893247e-05
       vertex 6.573040318e-06 0.0003649219342 0.0001
    endloop
  endfacet
  facet normal 0.7330838904 -0.6801382283 2.41215911e-06
    outer loop
       vertex 6.308408309e-06 0.0003660024804 5.999893247e-05
       vertex 4.748817446e-05 0.0004103879037 5.999575384e-05
       vertex 4.746164962e-05 0.0004103594559 0.0001
    endloop
  endfacet
  facet normal 0.7431398074 -0.6687414301 -0.02298100146
    outer loop
       vertex 4.746164962e-05 0.0004103594559 0.0001
       vertex 6.573040318e-06 0.0003649219342 0.0001
       vertex 6.308408309e-06 0.0003660024804 5.999893247e-05
    endloop
  endfacet
  facet normal 0.7070163187 -0.7071972184 -0.0001391480723
    outer loop
       vertex 4.748817446e-05 0.0004103879037 5.999575384e-05
       vertex 8.910353909e-05 0.0004519926232 5.999574611e-05
       vertex 8.911407852e-05 0.0004519952887 0.0001
    endloop
  endfacet
  facet normal 0.706965868 -0.7072476655 -3.418346144e-05
    outer loop
       vertex 8.911407852e-05 0.0004519952887 0.0001
       vertex 4.746164962e-05 0.0004103594559 0.0001
       vertex 4.748817446e-05 0.0004103879037 5.999575384e-05
    endloop
  endfacet
  facet normal -0.6831506528 0.7302774716 -3.429758973e-06
    outer loop
       vertex 0.0003663505834 7.062794866e-06 -5.999721397e-05
       vertex 0.000410514971 4.837713277e-05 -5.999575434e-05
       vertex 0.0004104971495 4.836027346e-05 -0.0001
    endloop
  endfacet
  facet normal -0.6722551899 0.7399910918 0.02204866664
    outer loop
       vertex 0.0004104971495 4.836027346e-05 -0.0001
       vertex 0.0003652925467 7.293523902e-06 -0.0001
       vertex 0.0003663505834 7.062794866e-06 -5.999721397e-05
    endloop
  endfacet
  facet normal -0.7071792102 0.7070343337 0.0001250125174
    outer loop
       vertex 0.000410514971 4.837713277e-05 -5.999575434e-05
       vertex 0.0004521143617 8.998504748e-05 -5.999573416e-05
       vertex 0.0004521204387 8.999819898e-05 -0.0001
    endloop
  endfacet
  facet normal -0.707231071 0.7069824693 1.711523131e-05
    outer loop
       vertex 0.0004521204387 8.999819898e-05 -0.0001
       vertex 0.0004104971495 4.836027346e-05 -0.0001
       vertex 0.000410514971 4.837713277e-05 -5.999575434e-05
    endloop
  endfacet
  facet normal -0.985380887 0.16995618 0.01180696044
    outer loop
       vertex 0.0004933356836 0.000135130992 -0.0001
       vertex 0.000493625567 0.000134032793 -5.999891154e-05
       vertex 0.0004997249926 0.0001693944951 -5.997201222e-05
    endloop
  endfacet
  facet normal -0.983224088 0.1823999314 0.0008109800167
    outer loop
       vertex 0.0004997249926 0.0001693944951 -5.997201222e-05
       vertex 0.0004997249926 0.0001695724661 -0.0001
       vertex 0.0004933356836 0.000135130992 -0.0001
    endloop
  endfacet
  facet normal -1 0 0
    outer loop
       vertex 0.0004997249926 0.0001695724661 -0.0001
       vertex 0.0004997249926 0.0001693944951 -5.997201222e-05
       vertex 0.0004997249926 0.0002087329111 -5.999914313e-05
    endloop
  endfacet
  facet normal -1 0 -0
    outer loop
       vertex 0.0004997249926 0.0002087329111 -5.999914313e-05
       vertex 0.0004997249926 0.0002087509042 -0.0001
       vertex 0.0004997249926 0.0001695724661 -0.0001
    endloop
  endfacet
  facet normal -1 0 0
    outer loop
       vertex 0.0004997249926 0.0002087509042 -0.0001
       vertex 0.0004997249926 0.0002087329111 -5.999914313e-05
       vertex 0.0004997249926 0.00025 -6.000346455e-05
    endloop
  endfacet
  facet normal -1 0 -0
    outer loop
       vertex 0.0004997249926 0.00025 -6.000346455e-05
       vertex 0.0004997249926 0.00025 -0.0001
       vertex 0.0004997249926 0.0002087509042 -0.0001
    endloop
  endfacet
  facet normal -1 0 0
    outer loop
       vertex 0.0004997249926 0.0002912490958 -0.0001
       vertex 0.0004997249926 0.00025 -0.0001
       vertex 0.0004997249926 0.00025 -6.000346455e-05
    endloop
  endfacet
  facet normal -1 0 0
    outer loop
       vertex 0.0004997249926 0.00025 -6.000346455e-05
       vertex 0.0004997249926 0.0002912670889 -5.999914313e-05
       vertex 0.0004997249926 0.0002912490958 -0.0001
    endloop
  endfacet
  facet normal -0.9999997938 -0.0002030759968 0.0006092747177
    outer loop
       vertex 0.0004997249926 0.0002912670889 -5.999914313e-05
       vertex 0.0004997170763 0.0003303328413 -5.997121116e-05
       vertex 0.0004996926875 0.0003303341509 -0.0001
    endloop
  endfacet
  facet normal -0.9999996584 -0.0008265330286 3.717893216e-07
    outer loop
       vertex 0.0004996926875 0.0003303341509 -0.0001
       vertex 0.0004997249926 0.0002912490958 -0.0001
       vertex 0.0004997249926 0.0002912670889 -5.999914313e-05
    endloop
  endfacet
  facet normal -0.9836678558 -0.1799922144 0.0005934419073
    outer loop
       vertex 0.0004933735945 0.0003648683594 -0.0001
       vertex 0.0004996926875 0.0003303341509 -0.0001
       vertex 0.0004997170763 0.0003303328413 -5.997121116e-05
    endloop
  endfacet
  facet normal -0.9858094728 -0.1674564462 0.01174827749
    outer loop
       vertex 0.0004997170763 0.0003303328413 -5.997121116e-05
       vertex 0.000493663403 0.0003659686081 -5.999926777e-05
       vertex 0.0004933735945 0.0003648683594 -0.0001
    endloop
  endfacet
  facet normal -0.733566287 -0.6796179077 4.686560158e-05
    outer loop
       vertex 0.000493663403 0.0003659686081 -5.999926777e-05
       vertex 0.0004525032418 0.0004103960819 -5.999574933e-05
       vertex 0.0004525073531 0.0004103888856 -0.0001
    endloop
  endfacet
  facet normal -0.743914488 -0.6678523204 0.0237594748
    outer loop
       vertex 0.0004525073531 0.0004103888856 -0.0001
       vertex 0.0004933735945 0.0003648683594 -0.0001
       vertex 0.000493663403 0.0003659686081 -5.999926777e-05
    endloop
  endfacet
  facet normal -0.7071075205 -0.7071060388 6.533530611e-05
    outer loop
       vertex 0.0004109030706 0.0004519969516 -5.999574933e-05
       vertex 0.0004108936815 0.0004520026444 -0.0001
       vertex 0.0004525073531 0.0004103888856 -0.0001
    endloop
  endfacet
  facet normal -0.7071127165 -0.7071008437 5.452813773e-05
    outer loop
       vertex 0.0004525073531 0.0004103888856 -0.0001
       vertex 0.0004525032418 0.0004103960819 -5.999574933e-05
       vertex 0.0004109030706 0.0004519969516 -5.999574933e-05
    endloop
  endfacet
  facet normal 0.6810342998 -0.7322515042 0.0001306345076
    outer loop
       vertex 0.0001336185655 0.0004933940524 -6.000395925e-05
       vertex 8.910353828e-05 0.0004519926225 -5.999574611e-05
       vertex 8.911407852e-05 0.0004519952887 -0.0001
    endloop
  endfacet
  facet normal 0.6696177566 -0.7423410399 0.02327746812
    outer loop
       vertex 8.911407852e-05 0.0004519952887 -0.0001
       vertex 0.000134707957 0.0004931225725 -0.0001
       vertex 0.0001336185655 0.0004933940524 -6.000395925e-05
    endloop
  endfacet
  facet normal 0.1873865247 -0.982285729 0.001018272227
    outer loop
       vertex 0.000134707957 0.0004931225725 -0.0001
       vertex 0.0001693377703 0.0004997287566 -0.0001
       vertex 0.0001691688711 0.0004997380311 -5.997176195e-05
    endloop
  endfacet
  facet normal 0.1756538943 -0.9843852087 0.01146605136
    outer loop
       vertex 0.0001691688711 0.0004997380311 -5.997176195e-05
       vertex 0.0001336185655 0.0004933940524 -6.000395925e-05
       vertex 0.000134707957 0.0004931225725 -0.0001
    endloop
  endfacet
  facet normal 0.0002360063383 -0.9999999722 1.064554501e-07
    outer loop
       vertex 0.0001693377703 0.0004997287566 -0.0001
       vertex 0.0002086354426 0.0004997380311 -0.0001
       vertex 0.0002086173994 0.0004997380311 -5.999913992e-05
    endloop
  endfacet
  facet normal 1.60803586e-07 -0.9999999732 0.0002316996041
    outer loop
       vertex 0.0002086173994 0.0004997380311 -5.999913992e-05
       vertex 0.0001691688711 0.0004997380311 -5.997176195e-05
       vertex 0.0001693377703 0.0004997287566 -0.0001
    endloop
  endfacet
  facet normal 0 -1 0
    outer loop
       vertex 0.0002086354426 0.0004997380311 -0.0001
       vertex 0.00025 0.0004997380311 -0.0001
       vertex 0.00025 0.0004997380311 -6.000346455e-05
    endloop
  endfacet
  facet normal -0 -1 0
    outer loop
       vertex 0.00025 0.0004997380311 -6.000346455e-05
       vertex 0.0002086173994 0.0004997380311 -5.999913992e-05
       vertex 0.0002086354426 0.0004997380311 -0.0001
    endloop
  endfacet
  facet normal 0 -1 0
    outer loop
       vertex 0.0002913645574 0.0004997380311 -0.0001
       vertex 0.0002913826006 0.0004997380311 -5.999914102e-05
       vertex 0.00025 0.0004997380311 -6.000346455e-05
    endloop
  endfacet
  facet normal 0 -1 0
    outer loop
       vertex 0.00025 0.0004997380311 -6.000346455e-05
       vertex 0.00025 0.0004997380311 -0.0001
       vertex 0.0002913645574 0.0004997380311 -0.0001
    endloop
  endfacet
  facet normal -0.001256315445 -0.9999992108 5.666866018e-07
    outer loop
       vertex 0.0002913826006 0.0004997380311 -5.999914102e-05
       vertex 0.0002913645574 0.0004997380311 -0.0001
       vertex 0.0003306526687 0.0004996886728 -0.0001
    endloop
  endfacet
  facet normal -0.0005254064003 -0.9999996041 0.0007181229622
    outer loop
       vertex 0.0003306526687 0.0004996886728 -0.0001
       vertex 0.0003306385479 0.0004997174256 -5.997152163e-05
       vertex 0.0002913826006 0.0004997380311 -5.999914102e-05
    endloop
  endfacet
  facet normal -0.6674547278 -0.7442953885 0.02299045458
    outer loop
       vertex 0.0003663531815 0.0004931803313 -6.000100138e-05
       vertex 0.0003652686686 0.0004929173552 -0.0001
       vertex 0.0004108936815 0.0004520026444 -0.0001
    endloop
  endfacet
  facet normal -0.6788175089 -0.7343070111 5.482473696e-05
    outer loop
       vertex 0.0004108936815 0.0004520026444 -0.0001
       vertex 0.0004109030706 0.0004519969516 -5.999574933e-05
       vertex 0.0003663531815 0.0004931803313 -6.000100138e-05
    endloop
  endfacet
  facet normal -0.1800250577 -0.9835965663 0.01134783125
    outer loop
       vertex 0.0003652686686 0.0004929173552 -0.0001
       vertex 0.0003663531815 0.0004931803313 -6.000100138e-05
       vertex 0.0003306385479 0.0004997174256 -5.997152163e-05
    endloop
  endfacet
  facet normal -0.191973939 -0.9813998169 0.0006372254979
    outer loop
       vertex 0.0003306385479 0.0004997174256 -5.997152163e-05
       vertex 0.0003306526687 0.0004996886728 -0.0001
       vertex 0.0003652686686 0.0004929173552 -0.0001
    endloop
  endfacet
  facet normal -0.6850390893 0.7285063117 -1.086134508e-06
    outer loop
       vertex 0.0003665076662 6.995637402e-06 -1.999986928e-05
       vertex 0.0004105151165 4.837732922e-05 -1.999897945e-05
       vertex 0.000410514971 4.837713277e-05 -5.999575434e-05
    endloop
  endfacet
  facet normal -0.6831455021 0.7302718274 0.003909099803
    outer loop
       vertex 0.000410514971 4.837713277e-05 -5.999575434e-05
       vertex 0.0003663505834 7.062794866e-06 -5.999721397e-05
       vertex 0.0003665076662 6.995637402e-06 -1.999986928e-05
    endloop
  endfacet
  facet normal -0.7071792155 0.7070343392 1.877813719e-05
    outer loop
       vertex 0.0004521130177 8.998264093e-05 -1.99989754e-05
       vertex 0.0004521143617 8.998504748e-05 -5.999573416e-05
       vertex 0.000410514971 4.837713277e-05 -5.999575434e-05
    endloop
  endfacet
  facet normal -0.707169757 0.7070437998 -9.002114524e-07
    outer loop
       vertex 0.000410514971 4.837713277e-05 -5.999575434e-05
       vertex 0.0004105151165 4.837732922e-05 -1.999897945e-05
       vertex 0.0004521130177 8.998264093e-05 -1.99989754e-05
    endloop
  endfacet
  facet normal -0.9858609317 0.1675450167 0.002625034976
    outer loop
       vertex 0.000493625567 0.000134032793 -5.999891154e-05
       vertex 0.0004937040486 0.0001338679066 -2.000026813e-05
       vertex 0.0004997249926 0.0001692960068 -1.999576489e-05
    endloop
  endfacet
  facet normal -0.9854480399 0.1699764259 0.0004187659009
    outer loop
       vertex 0.0004997249926 0.0001692960068 -1.999576489e-05
       vertex 0.0004997249926 0.0001693944951 -5.997201222e-05
       vertex 0.000493625567 0.000134032793 -5.999891154e-05
    endloop
  endfacet
  facet normal -1 0 0
    outer loop
       vertex 0.0004997249926 0.0001693944951 -5.997201222e-05
       vertex 0.0004997249926 0.0001692960068 -1.999576489e-05
       vertex 0.0004997249926 0.0002087229357 -1.999902786e-05
    endloop
  endfacet
  facet normal -1 0 -0
    outer loop
       vertex 0.0004997249926 0.0002087229357 -1.999902786e-05
       vertex 0.0004997249926 0.0002087329111 -5.999914313e-05
       vertex 0.0004997249926 0.0001693944951 -5.997201222e-05
    endloop
  endfacet
  facet normal -1 0 0
    outer loop
       vertex 0.0004997249926 0.0002087329111 -5.999914313e-05
       vertex 0.0004997249926 0.0002087229357 -1.999902786e-05
       vertex 0.0004997249926 0.00025 -2.000070853e-05
    endloop
  endfacet
  facet normal -1 0 -0
    outer loop
       vertex 0.0004997249926 0.00025 -2.000070853e-05
       vertex 0.0004997249926 0.00025 -6.000346455e-05
       vertex 0.0004997249926 0.0002087329111 -5.999914313e-05
    endloop
  endfacet
  facet normal -1 -0 0
    outer loop
       vertex 0.0004997249926 0.0002912670889 -5.999914313e-05
       vertex 0.0004997249926 0.00025 -6.000346455e-05
       vertex 0.0004997249926 0.00025 -2.000070853e-05
    endloop
  endfacet
  facet normal -1 0 0
    outer loop
       vertex 0.0004997249926 0.00025 -2.000070853e-05
       vertex 0.0004997249926 0.0002912770643 -1.999902786e-05
       vertex 0.0004997249926 0.0002912670889 -5.999914313e-05
    endloop
  endfacet
  facet normal -0.9999999795 -0.0002026404398 5.053534046e-08
    outer loop
       vertex 0.0004997170763 0.0003303328413 -5.997121116e-05
       vertex 0.0004997249926 0.0002912670889 -5.999914313e-05
       vertex 0.0004997249926 0.0002912770643 -1.999902786e-05
    endloop
  endfacet
  facet normal -0.9999999868 -4.169282122e-05 0.0001573082541
    outer loop
       vertex 0.0004997249926 0.0002912770643 -1.999902786e-05
       vertex 0.0004997233627 0.0003303854028 -1.999497857e-05
       vertex 0.0004997170763 0.0003303328413 -5.997121116e-05
    endloop
  endfacet
  facet normal -0.9858759636 -0.1674766956 0.0003752338833
    outer loop
       vertex 0.000493663403 0.0003659686081 -5.999926777e-05
       vertex 0.0004997170763 0.0003303328413 -5.997121116e-05
       vertex 0.0004997233627 0.0003303854028 -1.999497857e-05
    endloop
  endfacet
  facet normal -0.9862855473 -0.1650271959 0.002616071426
    outer loop
       vertex 0.0004997233627 0.0003303854028 -1.999497857e-05
       vertex 0.0004937418398 0.0003661339077 -2.000035542e-05
       vertex 0.000493663403 0.0003659686081 -5.999926777e-05
    endloop
  endfacet
  facet normal -0.7316550232 -0.6816750891 1.458732241e-07
    outer loop
       vertex 0.0004937418398 0.0003661339077 -2.000035542e-05
       vertex 0.0004524989927 0.0004104006511 -1.999897722e-05
       vertex 0.0004525032418 0.0004103960819 -5.999574933e-05
    endloop
  endfacet
  facet normal -0.7335595061 -0.6796119581 0.00424705661
    outer loop
       vertex 0.0004525032418 0.0004103960819 -5.999574933e-05
       vertex 0.000493663403 0.0003659686081 -5.999926777e-05
       vertex 0.0004937418398 0.0003661339077 -2.000035542e-05
    endloop
  endfacet
  facet normal -0.7071127175 -0.7071008447 1.028373173e-05
    outer loop
       vertex 0.0004109086499 0.0004519919539 -1.99989754e-05
       vertex 0.0004109030706 0.0004519969516 -5.999574933e-05
       vertex 0.0004525032418 0.0004103960819 -5.999574933e-05
    endloop
  endfacet
  facet normal -0.7071149419 -0.7070986204 5.65727945e-06
    outer loop
       vertex 0.0004525032418 0.0004103960819 -5.999574933e-05
       vertex 0.0004524989927 0.0004104006511 -1.999897722e-05
       vertex 0.0004109086499 0.0004519919539 -1.99989754e-05
    endloop
  endfacet
  facet normal 0.6830223038 -0.7303975166 1.444795729e-05
    outer loop
       vertex 0.0001334557272 0.0004934688206 -2.000134173e-05
       vertex 8.909879398e-05 0.0004519889771 -1.999897722e-05
       vertex 8.910353828e-05 0.0004519926225 -5.999574611e-05
    endloop
  endfacet
  facet normal 0.6810288635 -0.7322448635 0.004140884349
    outer loop
       vertex 8.910353828e-05 0.0004519926225 -5.999574611e-05
       vertex 0.0001336185655 0.0004933940524 -6.000395925e-05
       vertex 0.0001334557272 0.0004934688206 -2.000134173e-05
    endloop
  endfacet
  facet normal 0.1756751135 -0.9844481042 0.0004296859293
    outer loop
       vertex 0.0001336185655 0.0004933940524 -6.000395925e-05
       vertex 0.0001691688711 0.0004997380311 -5.997176195e-05
       vertex 0.0001690697882 0.0004997377982 -1.999576887e-05
    endloop
  endfacet
  facet normal 0.1733591169 -0.9848553864 0.002546467574
    outer loop
       vertex 0.0001690697882 0.0004997377982 -1.999576887e-05
       vertex 0.0001334557272 0.0004934688206 -2.000134173e-05
       vertex 0.0001336185655 0.0004933940524 -6.000395925e-05
    endloop
  endfacet
  facet normal 0 -1 0
    outer loop
       vertex 0.0001691688711 0.0004997380311 -5.997176195e-05
       vertex 0.0002086173994 0.0004997380311 -5.999913992e-05
       vertex 0.0002086073961 0.0004997380311 -1.999902708e-05
    endloop
  endfacet
  facet normal 5.890115198e-06 -1 -5.8113976e-06
    outer loop
       vertex 0.0002086073961 0.0004997380311 -1.999902708e-05
       vertex 0.0001690697882 0.0004997377982 -1.999576887e-05
       vertex 0.0001691688711 0.0004997380311 -5.997176195e-05
    endloop
  endfacet
  facet normal 0 -1 0
    outer loop
       vertex 0.0002086173994 0.0004997380311 -5.999913992e-05
       vertex 0.00025 0.0004997380311 -6.000346455e-05
       vertex 0.00025 0.0004997380311 -2.000070853e-05
    endloop
  endfacet
  facet normal -0 -1 0
    outer loop
       vertex 0.00025 0.0004997380311 -2.000070853e-05
       vertex 0.0002086073961 0.0004997380311 -1.999902708e-05
       vertex 0.0002086173994 0.0004997380311 -5.999913992e-05
    endloop
  endfacet
  facet normal 0 -1 0
    outer loop
       vertex 0.0002913826006 0.0004997380311 -5.999914102e-05
       vertex 0.0002913926039 0.0004997380311 -1.999902708e-05
       vertex 0.00025 0.0004997380311 -2.000070853e-05
    endloop
  endfacet
  facet normal 0 -1 0
    outer loop
       vertex 0.00025 0.0004997380311 -2.000070853e-05
       vertex 0.00025 0.0004997380311 -6.000346455e-05
       vertex 0.0002913826006 0.0004997380311 -5.999914102e-05
    endloop
  endfacet
  facet normal -0.000333315058 -0.9999999267 0.0001882352971
    outer loop
       vertex 0.0003306385479 0.0004997174256 -5.997152163e-05
       vertex 0.0003306871804 0.0004997249343 -1.999544111e-05
       vertex 0.0002913926039 0.0004997380311 -1.999902708e-05
    endloop
  endfacet
  facet normal -0.0005249013768 -0.9999998622 1.312682747e-07
    outer loop
       vertex 0.0002913926039 0.0004997380311 -1.999902708e-05
       vertex 0.0002913826006 0.0004997380311 -5.999914102e-05
       vertex 0.0003306385479 0.0004997174256 -5.997152163e-05
    endloop
  endfacet
  facet normal -0.6788120803 -0.7343006237 0.004093132577
    outer loop
       vertex 0.0003665152946 0.0004932534379 -2.00006961e-05
       vertex 0.0003663531815 0.0004931803313 -6.000100138e-05
       vertex 0.0004109030706 0.0004519969516 -5.999574933e-05
    endloop
  endfacet
  facet normal -0.6807972977 -0.7324718694 3.442720201e-06
    outer loop
       vertex 0.0004109030706 0.0004519969516 -5.999574933e-05
       vertex 0.0004109086499 0.0004519919539 -1.99989754e-05
       vertex 0.0003665152946 0.0004932534379 -2.00006961e-05
    endloop
  endfacet
  facet normal -0.1777489405 -0.9840726443 0.002518921699
    outer loop
       vertex 0.0003663531815 0.0004931803313 -6.000100138e-05
       vertex 0.0003665152946 0.0004932534379 -2.00006961e-05
       vertex 0.0003306871804 0.0004997249343 -1.999544111e-05
    endloop
  endfacet
  facet normal -0.1800453766 -0.9836582228 0.0004037927447
    outer loop
       vertex 0.0003306871804 0.0004997249343 -1.999544111e-05
       vertex 0.0003306385479 0.0004997174256 -5.997152163e-05
       vertex 0.0003663531815 0.0004931803313 -6.000100138e-05
    endloop
  endfacet
  facet normal -0.6850390893 0.7285063117 2.368268838e-09
    outer loop
       vertex 0.0004105151165 4.837732922e-05 -1.999897945e-05
       vertex 0.0003665076662 6.995637402e-06 -1.999986928e-05
       vertex 0.0003665076663 6.995637366e-06 1.999986243e-05
    endloop
  endfacet
  facet normal -0.6850390905 0.7285063106 0
    outer loop
       vertex 0.0003665076663 6.995637366e-06 1.999986243e-05
       vertex 0.0004105151165 4.837732922e-05 1.999897945e-05
       vertex 0.0004105151165 4.837732922e-05 -1.999897945e-05
    endloop
  endfacet
  facet normal -0.707169757 0.7070437998 0
    outer loop
       vertex 0.0004521130177 8.998264093e-05 1.99989754e-05
       vertex 0.0004521130177 8.998264093e-05 -1.99989754e-05
       vertex 0.0004105151165 4.837732922e-05 -1.999897945e-05
    endloop
  endfacet
  facet normal -0.707169757 0.7070437998 0
    outer loop
       vertex 0.0004105151165 4.837732922e-05 -1.999897945e-05
       vertex 0.0004105151165 4.837732922e-05 1.999897945e-05
       vertex 0.0004521130177 8.998264093e-05 1.99989754e-05
    endloop
  endfacet
  facet normal -0.9858642732 0.1675459183 0
    outer loop
       vertex 0.0004997249926 0.0001692960068 -1.999576489e-05
       vertex 0.0004937040486 0.0001338679066 -2.000026813e-05
       vertex 0.0004937040486 0.0001338679066 2.000025957e-05
    endloop
  endfacet
  facet normal -0.9858642732 0.1675459183 0
    outer loop
       vertex 0.0004937040486 0.0001338679066 2.000025957e-05
       vertex 0.0004997249926 0.0001692960068 1.999576489e-05
       vertex 0.0004997249926 0.0001692960068 -1.999576489e-05
    endloop
  endfacet
  facet normal -1 0 0
    outer loop
       vertex 0.0004997249926 0.0001692960068 -1.999576489e-05
       vertex 0.0004997249926 0.0001692960068 1.999576489e-05
       vertex 0.0004997249926 0.0002087229357 1.999902786e-05
    endloop
  endfacet
  facet normal -1 0 -0
    outer loop
       vertex 0.0004997249926 0.0002087229357 1.999902786e-05
       vertex 0.0004997249926 0.0002087229357 -1.999902786e-05
       vertex 0.0004997249926 0.0001692960068 -1.999576489e-05
    endloop
  endfacet
  facet normal -1 0 0
    outer loop
       vertex 0.0004997249926 0.0002087229357 -1.999902786e-05
       vertex 0.0004997249926 0.0002087229357 1.999902786e-05
       vertex 0.0004997249926 0.00025 2.000070853e-05
    endloop
  endfacet
  facet normal -1 0 -0
    outer loop
       vertex 0.0004997249926 0.00025 2.000070853e-05
       vertex 0.0004997249926 0.00025 -2.000070853e-05
       vertex 0.0004997249926 0.0002087229357 -1.999902786e-05
    endloop
  endfacet
  facet normal -1 0 -0
    outer loop
       vertex 0.0004997249926 0.0002912770643 1.999902786e-05
       vertex 0.0004997249926 0.0002912770643 -1.999902786e-05
       vertex 0.0004997249926 0.00025 -2.000070853e-05
    endloop
  endfacet
  facet normal -1 0 0
    outer loop
       vertex 0.0004997249926 0.00025 -2.000070853e-05
       vertex 0.0004997249926 0.00025 2.000070853e-05
       vertex 0.0004997249926 0.0002912770643 1.999902786e-05
    endloop
  endfacet
  facet normal -0.9999999991 -4.167653399e-05 0
    outer loop
       vertex 0.0004997233627 0.0003303854028 -1.999497857e-05
       vertex 0.0004997249926 0.0002912770643 -1.999902786e-05
       vertex 0.0004997249926 0.0002912770643 1.999902786e-05
    endloop
  endfacet
  facet normal -0.9999999991 -4.167650297e-05 3.032727022e-11
    outer loop
       vertex 0.0004997249926 0.0002912770643 1.999902786e-05
       vertex 0.0004997233627 0.0003303854319 1.999497861e-05
       vertex 0.0004997233627 0.0003303854028 -1.999497857e-05
    endloop
  endfacet
  facet normal -0.9862888374 -0.1650282678 5.75648613e-09
    outer loop
       vertex 0.0004997233627 0.0003303854319 1.999497861e-05
       vertex 0.00049374184 0.0003661339079 2.000034647e-05
       vertex 0.0004937418398 0.0003661339077 -2.000035542e-05
    endloop
  endfacet
  facet normal -0.9862888582 -0.1650281433 1.20088125e-07
    outer loop
       vertex 0.0004937418398 0.0003661339077 -2.000035542e-05
       vertex 0.0004997233627 0.0003303854028 -1.999497857e-05
       vertex 0.0004997233627 0.0003303854319 1.999497861e-05
    endloop
  endfacet
  facet normal -0.7316550232 -0.6816750891 7.066527894e-09
    outer loop
       vertex 0.0004524989927 0.0004104006511 -1.999897722e-05
       vertex 0.0004937418398 0.0003661339077 -2.000035542e-05
       vertex 0.00049374184 0.0003661339079 2.000034647e-05
    endloop
  endfacet
  facet normal -0.7316550208 -0.6816750917 1.704275466e-09
    outer loop
       vertex 0.00049374184 0.0003661339079 2.000034647e-05
       vertex 0.0004524989927 0.0004104006512 1.999897722e-05
       vertex 0.0004524989927 0.0004104006511 -1.999897722e-05
    endloop
  endfacet
  facet normal -0.7071149419 -0.7070986204 -0
    outer loop
       vertex 0.0004109086499 0.0004519919539 1.99989754e-05
       vertex 0.0004109086499 0.0004519919539 -1.99989754e-05
       vertex 0.0004524989927 0.0004104006511 -1.999897722e-05
    endloop
  endfacet
  facet normal -0.707114941 -0.7070986213 1.767837527e-09
    outer loop
       vertex 0.0004524989927 0.0004104006511 -1.999897722e-05
       vertex 0.0004524989927 0.0004104006512 1.999897722e-05
       vertex 0.0004109086499 0.0004519919539 1.99989754e-05
    endloop
  endfacet
  facet normal 0.6830223035 -0.7303975171 1.825871241e-09
    outer loop
       vertex 8.909879398e-05 0.0004519889771 -1.999897722e-05
       vertex 0.0001334557272 0.0004934688206 -2.000134173e-05
       vertex 0.0001334557272 0.0004934688207 2.000133421e-05
    endloop
  endfacet
  facet normal 0.6830223043 -0.7303975163 0
    outer loop
       vertex 0.0001334557272 0.0004934688207 2.000133421e-05
       vertex 8.909879398e-05 0.0004519889771 1.999897722e-05
       vertex 8.909879398e-05 0.0004519889771 -1.999897722e-05
    endloop
  endfacet
  facet normal 0.1733600628 -0.984858512 0
    outer loop
       vertex 0.0001690697882 0.0004997377982 -1.999576887e-05
       vertex 0.0001690697882 0.0004997377982 1.999576887e-05
       vertex 0.0001334557272 0.0004934688207 2.000133421e-05
    endloop
  endfacet
  facet normal 0.1733600655 -0.9848585115 2.461981032e-09
    outer loop
       vertex 0.0001334557272 0.0004934688207 2.000133421e-05
       vertex 0.0001334557272 0.0004934688206 -2.000134173e-05
       vertex 0.0001690697882 0.0004997377982 -1.999576887e-05
    endloop
  endfacet
  facet normal 5.890594103e-06 -1 0
    outer loop
       vertex 0.0001690697882 0.0004997377982 -1.999576887e-05
       vertex 0.0002086073961 0.0004997380311 -1.999902708e-05
       vertex 0.0002086073961 0.0004997380311 1.999902708e-05
    endloop
  endfacet
  facet normal 5.890594103e-06 -1 0
    outer loop
       vertex 0.0002086073961 0.0004997380311 1.999902708e-05
       vertex 0.0001690697882 0.0004997377982 1.999576887e-05
       vertex 0.0001690697882 0.0004997377982 -1.999576887e-05
    endloop
  endfacet
  facet normal 0 -1 0
    outer loop
       vertex 0.0002086073961 0.0004997380311 -1.999902708e-05
       vertex 0.00025 0.0004997380311 -2.000070853e-05
       vertex 0.00025 0.0004997380311 2.000070853e-05
    endloop
  endfacet
  facet normal 0 -1 0
    outer loop
       vertex 0.00025 0.0004997380311 2.000070853e-05
       vertex 0.0002086073961 0.0004997380311 1.999902708e-05
       vertex 0.0002086073961 0.0004997380311 -1.999902708e-05
    endloop
  endfacet
  facet normal 0 -1 0
    outer loop
       vertex 0.0002913926039 0.0004997380311 -1.999902708e-05
       vertex 0.0002913926039 0.0004997380311 1.999902708e-05
       vertex 0.00025 0.0004997380311 2.000070853e-05
    endloop
  endfacet
  facet normal 0 -1 0
    outer loop
       vertex 0.00025 0.0004997380311 2.000070853e-05
       vertex 0.00025 0.0004997380311 -2.000070853e-05
       vertex 0.0002913926039 0.0004997380311 -1.999902708e-05
    endloop
  endfacet
  facet normal -0.0003332978858 -0.9999999445 0
    outer loop
       vertex 0.0003306871804 0.0004997249343 -1.999544111e-05
       vertex 0.0003306871804 0.0004997249343 1.99954502e-05
       vertex 0.0002913926039 0.0004997380311 1.999902708e-05
    endloop
  endfacet
  facet normal -0.0003332978858 -0.9999999445 -0
    outer loop
       vertex 0.0002913926039 0.0004997380311 1.999902708e-05
       vertex 0.0002913926039 0.0004997380311 -1.999902708e-05
       vertex 0.0003306871804 0.0004997249343 -1.999544111e-05
    endloop
  endfacet
  facet normal -0.6807972985 -0.7324718686 0
    outer loop
       vertex 0.0004109086499 0.0004519919539 -1.99989754e-05
       vertex 0.0004109086499 0.0004519919539 1.99989754e-05
       vertex 0.0003665152946 0.000493253438 2.000068942e-05
    endloop
  endfacet
  facet normal -0.6807972976 -0.7324718694 1.831115843e-09
    outer loop
       vertex 0.0003665152946 0.000493253438 2.000068942e-05
       vertex 0.0003665152946 0.0004932534379 -2.00006961e-05
       vertex 0.0004109086499 0.0004519919539 -1.99989754e-05
    endloop
  endfacet
  facet normal -0.1777498622 -0.9840757016 2.460103501e-09
    outer loop
       vertex 0.0003306871804 0.0004997249343 -1.999544111e-05
       vertex 0.0003665152946 0.0004932534379 -2.00006961e-05
       vertex 0.0003665152946 0.000493253438 2.000068942e-05
    endloop
  endfacet
  facet normal -0.1777498595 -0.9840757021 0
    outer loop
       vertex 0.0003665152946 0.000493253438 2.000068942e-05
       vertex 0.0003306871804 0.0004997249343 1.99954502e-05
       vertex 0.0003306871804 0.0004997249343 -1.999544111e-05
    endloop
  endfacet
  facet normal -0.6831470412 0.7302704046 -0.003905936121
    outer loop
       vertex 0.0003665076663 6.995637366e-06 1.999986243e-05
       vertex 0.0003663506062 7.062642635e-06 5.999721586e-05
       vertex 0.000410514971 4.837713277e-05 5.999575363e-05
    endloop
  endfacet
  facet normal -0.6850390904 0.7285063106 1.086134518e-06
    outer loop
       vertex 0.000410514971 4.837713277e-05 5.999575363e-05
       vertex 0.0004105151165 4.837732922e-05 1.999897945e-05
       vertex 0.0003665076663 6.995637366e-06 1.999986243e-05
    endloop
  endfacet
  facet normal -0.707169757 0.7070437998 9.002114684e-07
    outer loop
       vertex 0.0004521130177 8.998264093e-05 1.99989754e-05
       vertex 0.0004105151165 4.837732922e-05 1.999897945e-05
       vertex 0.000410514971 4.837713277e-05 5.999575363e-05
    endloop
  endfacet
  facet normal -0.7071792159 0.7070343388 -1.877901124e-05
    outer loop
       vertex 0.000410514971 4.837713277e-05 5.999575363e-05
       vertex 0.0004521143644 8.998505023e-05 5.999573416e-05
       vertex 0.0004521130177 8.998264093e-05 1.99989754e-05
    endloop
  endfacet
  facet normal -0.9854489385 0.169971216 -0.0004187530655
    outer loop
       vertex 0.0004936257557 0.0001340327709 5.99989138e-05
       vertex 0.0004997249926 0.0001693944951 5.997201222e-05
       vertex 0.0004997249926 0.0001692960068 1.999576489e-05
    endloop
  endfacet
  facet normal -0.9858609437 0.16754502 -0.002620290776
    outer loop
       vertex 0.0004997249926 0.0001692960068 1.999576489e-05
       vertex 0.0004937040486 0.0001338679066 2.000025957e-05
       vertex 0.0004936257557 0.0001340327709 5.99989138e-05
    endloop
  endfacet
  facet normal -1 0 0
    outer loop
       vertex 0.0004997249926 0.0001693944951 5.997201222e-05
       vertex 0.0004997249926 0.0002087329111 5.999914313e-05
       vertex 0.0004997249926 0.0002087229357 1.999902786e-05
    endloop
  endfacet
  facet normal -1 -0 0
    outer loop
       vertex 0.0004997249926 0.0002087229357 1.999902786e-05
       vertex 0.0004997249926 0.0001692960068 1.999576489e-05
       vertex 0.0004997249926 0.0001693944951 5.997201222e-05
    endloop
  endfacet
  facet normal -1 0 0
    outer loop
       vertex 0.0004997249926 0.0002087329111 5.999914313e-05
       vertex 0.0004997249926 0.00025 6.000346455e-05
       vertex 0.0004997249926 0.00025 2.000070853e-05
    endloop
  endfacet
  facet normal -1 -0 0
    outer loop
       vertex 0.0004997249926 0.00025 2.000070853e-05
       vertex 0.0004997249926 0.0002087229357 1.999902786e-05
       vertex 0.0004997249926 0.0002087329111 5.999914313e-05
    endloop
  endfacet
  facet normal -1 0 -0
    outer loop
       vertex 0.0004997249926 0.0002912670889 5.999914313e-05
       vertex 0.0004997249926 0.0002912770643 1.999902786e-05
       vertex 0.0004997249926 0.00025 2.000070853e-05
    endloop
  endfacet
  facet normal -1 0 0
    outer loop
       vertex 0.0004997249926 0.00025 2.000070853e-05
       vertex 0.0004997249926 0.00025 6.000346455e-05
       vertex 0.0004997249926 0.0002912670889 5.999914313e-05
    endloop
  endfacet
  facet normal -0.9999999868 -4.169279003e-05 -0.0001573082542
    outer loop
       vertex 0.0004997170763 0.0003303328704 5.997121116e-05
       vertex 0.0004997233627 0.0003303854319 1.999497861e-05
       vertex 0.0004997249926 0.0002912770643 1.999902786e-05
    endloop
  endfacet
  facet normal -0.9999999795 -0.0002026402889 -5.053530282e-08
    outer loop
       vertex 0.0004997249926 0.0002912770643 1.999902786e-05
       vertex 0.0004997249926 0.0002912670889 5.999914313e-05
       vertex 0.0004997170763 0.0003303328704 5.997121116e-05
    endloop
  endfacet
  facet normal -0.9862855388 -0.1650273237 -0.002611218383
    outer loop
       vertex 0.0004936635963 0.0003659686304 5.99992734e-05
       vertex 0.00049374184 0.0003661339079 2.000034647e-05
       vertex 0.0004997233627 0.0003303854319 1.999497861e-05
    endloop
  endfacet
  facet normal -0.9858768413 -0.1674715289 -0.0003752272284
    outer loop
       vertex 0.0004997233627 0.0003303854319 1.999497861e-05
       vertex 0.0004997170763 0.0003303328704 5.997121116e-05
       vertex 0.0004936635963 0.0003659686304 5.99992734e-05
    endloop
  endfacet
  facet normal -0.7335577564 -0.6796138711 -0.004243142695
    outer loop
       vertex 0.00049374184 0.0003661339079 2.000034647e-05
       vertex 0.0004936635963 0.0003659686304 5.99992734e-05
       vertex 0.0004525032423 0.0004103960813 5.999574932e-05
    endloop
  endfacet
  facet normal -0.7316550207 -0.6816750917 -1.486576293e-07
    outer loop
       vertex 0.0004525032423 0.0004103960813 5.999574932e-05
       vertex 0.0004524989927 0.0004104006512 1.999897722e-05
       vertex 0.00049374184 0.0003661339079 2.000034647e-05
    endloop
  endfacet
  facet normal -0.707114941 -0.7070986213 -5.660815214e-06
    outer loop
       vertex 0.0004109086499 0.0004519919539 1.99989754e-05
       vertex 0.0004524989927 0.0004104006512 1.999897722e-05
       vertex 0.0004525032423 0.0004103960813 5.999574932e-05
    endloop
  endfacet
  facet normal -0.7071127184 -0.7071008439 -1.028373195e-05
    outer loop
       vertex 0.0004525032423 0.0004103960813 5.999574932e-05
       vertex 0.0004109030706 0.0004519969516 5.999574933e-05
       vertex 0.0004109086499 0.0004519919539 1.99989754e-05
    endloop
  endfacet
  facet normal 0.6810301474 -0.7322436844 -0.004138239823
    outer loop
       vertex 0.0001334557272 0.0004934688207 2.000133421e-05
       vertex 0.000133618551 0.0004933941836 6.000396061e-05
       vertex 8.910353909e-05 0.0004519926232 5.999574611e-05
    endloop
  endfacet
  facet normal 0.6830223047 -0.7303975158 -1.44490068e-05
    outer loop
       vertex 8.910353909e-05 0.0004519926232 5.999574611e-05
       vertex 8.909879398e-05 0.0004519889771 1.999897722e-05
       vertex 0.0001334557272 0.0004934688207 2.000133421e-05
    endloop
  endfacet
  facet normal 0.1733591167 -0.9848553949 -0.002543176534
    outer loop
       vertex 0.000133618551 0.0004933941836 6.000396061e-05
       vertex 0.0001334557272 0.0004934688207 2.000133421e-05
       vertex 0.0001690697882 0.0004997377982 1.999576887e-05
    endloop
  endfacet
  facet normal 0.175671523 -0.9844487449 -0.0004296769867
    outer loop
       vertex 0.0001690697882 0.0004997377982 1.999576887e-05
       vertex 0.0001691688711 0.0004997380311 5.997176565e-05
       vertex 0.000133618551 0.0004933941836 6.000396061e-05
    endloop
  endfacet
  facet normal 5.890115198e-06 -1 5.811397062e-06
    outer loop
       vertex 0.0001691688711 0.0004997380311 5.997176565e-05
       vertex 0.0001690697882 0.0004997377982 1.999576887e-05
       vertex 0.0002086073961 0.0004997380311 1.999902708e-05
    endloop
  endfacet
  facet normal 0 -1 0
    outer loop
       vertex 0.0002086073961 0.0004997380311 1.999902708e-05
       vertex 0.0002086173994 0.0004997380311 5.999913992e-05
       vertex 0.0001691688711 0.0004997380311 5.997176565e-05
    endloop
  endfacet
  facet normal 0 -1 -0
    outer loop
       vertex 0.0002086173994 0.0004997380311 5.999913992e-05
       vertex 0.0002086073961 0.0004997380311 1.999902708e-05
       vertex 0.00025 0.0004997380311 2.000070853e-05
    endloop
  endfacet
  facet normal 0 -1 0
    outer loop
       vertex 0.00025 0.0004997380311 2.000070853e-05
       vertex 0.00025 0.0004997380311 6.000346455e-05
       vertex 0.0002086173994 0.0004997380311 5.999913992e-05
    endloop
  endfacet
  facet normal -0 -1 0
    outer loop
       vertex 0.0002913826006 0.0004997380311 5.999914102e-05
       vertex 0.00025 0.0004997380311 6.000346455e-05
       vertex 0.00025 0.0004997380311 2.000070853e-05
    endloop
  endfacet
  facet normal 0 -1 0
    outer loop
       vertex 0.00025 0.0004997380311 2.000070853e-05
       vertex 0.0002913926039 0.0004997380311 1.999902708e-05
       vertex 0.0002913826006 0.0004997380311 5.999914102e-05
    endloop
  endfacet
  facet normal -0.0005249013768 -0.9999998622 -1.312682747e-07
    outer loop
       vertex 0.0003306385479 0.0004997174256 5.997152163e-05
       vertex 0.0002913826006 0.0004997380311 5.999914102e-05
       vertex 0.0002913926039 0.0004997380311 1.999902708e-05
    endloop
  endfacet
  facet normal -0.0003333150145 -0.9999999267 -0.0001882353399
    outer loop
       vertex 0.0002913926039 0.0004997380311 1.999902708e-05
       vertex 0.0003306871804 0.0004997249343 1.99954502e-05
       vertex 0.0003306385479 0.0004997174256 5.997152163e-05
    endloop
  endfacet
  facet normal -0.6807972986 -0.7324718685 -3.442720427e-06
    outer loop
       vertex 0.0003665152946 0.000493253438 2.000068942e-05
       vertex 0.0004109086499 0.0004519919539 1.99989754e-05
       vertex 0.0004109030706 0.0004519969516 5.999574933e-05
    endloop
  endfacet
  facet normal -0.6788133683 -0.7342994477 -0.004090491134
    outer loop
       vertex 0.0004109030706 0.0004519969516 5.999574933e-05
       vertex 0.0003663531972 0.0004931804609 6.000100257e-05
       vertex 0.0003665152946 0.000493253438 2.000068942e-05
    endloop
  endfacet
  facet normal -0.1800418463 -0.983658869 -0.0004037886631
    outer loop
       vertex 0.0003663531972 0.0004931804609 6.000100257e-05
       vertex 0.0003306385479 0.0004997174256 5.997152163e-05
       vertex 0.0003306871804 0.0004997249343 1.99954502e-05
    endloop
  endfacet
  facet normal -0.1777489408 -0.9840726525 -0.002515665544
    outer loop
       vertex 0.0003306871804 0.0004997249343 1.99954502e-05
       vertex 0.0003665152946 0.000493253438 2.000068942e-05
       vertex 0.0003663531972 0.0004931804609 6.000100257e-05
    endloop
  endfacet
  facet normal -0.6722570305 0.7399894138 -0.02204886485
    outer loop
       vertex 0.0003663506062 7.062642635e-06 5.999721586e-05
       vertex 0.0003652925651 7.293376224e-06 0.0001
       vertex 0.0004104971307 4.836029755e-05 0.0001
    endloop
  endfacet
  facet normal -0.6831521834 0.7302760398 2.667664168e-06
    outer loop
       vertex 0.0004104971307 4.836029755e-05 0.0001
       vertex 0.000410514971 4.837713277e-05 5.999575363e-05
       vertex 0.0003663506062 7.062642635e-06 5.999721586e-05
    endloop
  endfacet
  facet normal -0.7072306456 0.7069828948 -1.787296053e-05
    outer loop
       vertex 0.000410514971 4.837713277e-05 5.999575363e-05
       vertex 0.0004104971307 4.836029755e-05 0.0001
       vertex 0.000452120442 8.999819507e-05 0.0001
    endloop
  endfacet
  facet normal -0.7071792106 0.7070343333 -0.000124884202
    outer loop
       vertex 0.000452120442 8.999819507e-05 0.0001
       vertex 0.0004521143644 8.998505023e-05 5.999573416e-05
       vertex 0.000410514971 4.837713277e-05 5.999575363e-05
    endloop
  endfacet
  facet normal -0.9832250653 0.1823946637 -0.0008109565953
    outer loop
       vertex 0.0004933358711 0.0001351309738 0.0001
       vertex 0.0004997249926 0.0001695724661 0.0001
       vertex 0.0004997249926 0.0001693944951 5.997201222e-05
    endloop
  endfacet
  facet normal -0.9853817867 0.1699509701 -0.01180687072
    outer loop
       vertex 0.0004997249926 0.0001693944951 5.997201222e-05
       vertex 0.0004936257557 0.0001340327709 5.99989138e-05
       vertex 0.0004933358711 0.0001351309738 0.0001
    endloop
  endfacet
  facet normal -1 0 0
    outer loop
       vertex 0.0004997249926 0.0001695724661 0.0001
       vertex 0.0004997249926 0.0002087509042 0.0001
       vertex 0.0004997249926 0.0002087329111 5.999914313e-05
    endloop
  endfacet
  facet normal -1 -0 0
    outer loop
       vertex 0.0004997249926 0.0002087329111 5.999914313e-05
       vertex 0.0004997249926 0.0001693944951 5.997201222e-05
       vertex 0.0004997249926 0.0001695724661 0.0001
    endloop
  endfacet
  facet normal -1 0 0
    outer loop
       vertex 0.0004997249926 0.0002087509042 0.0001
       vertex 0.0004997249926 0.00025 0.0001
       vertex 0.0004997249926 0.00025 6.000346455e-05
    endloop
  endfacet
  facet normal -1 -0 0
    outer loop
       vertex 0.0004997249926 0.00025 6.000346455e-05
       vertex 0.0004997249926 0.0002087329111 5.999914313e-05
       vertex 0.0004997249926 0.0002087509042 0.0001
    endloop
  endfacet
  facet normal -1 0 -0
    outer loop
       vertex 0.0004997249926 0.0002912490958 0.0001
       vertex 0.0004997249926 0.0002912670889 5.999914313e-05
       vertex 0.0004997249926 0.00025 6.000346455e-05
    endloop
  endfacet
  facet normal -1 0 0
    outer loop
       vertex 0.0004997249926 0.00025 6.000346455e-05
       vertex 0.0004997249926 0.00025 0.0001
       vertex 0.0004997249926 0.0002912490958 0.0001
    endloop
  endfacet
  facet normal -0.9999996584 -0.0008265330286 -3.717893216e-07
    outer loop
       vertex 0.0004997249926 0.0002912670889 5.999914313e-05
       vertex 0.0004997249926 0.0002912490958 0.0001
       vertex 0.0004996926875 0.0003303341509 0.0001
    endloop
  endfacet
  facet normal -0.9999997938 -0.0002030758457 -0.0006092748654
    outer loop
       vertex 0.0004996926875 0.0003303341509 0.0001
       vertex 0.0004997170763 0.0003303328704 5.997121116e-05
       vertex 0.0004997249926 0.0002912670889 5.999914313e-05
    endloop
  endfacet
  facet normal -0.9858103333 -0.167451274 -0.0117497906
    outer loop
       vertex 0.0004933737227 0.0003648683714 0.0001
       vertex 0.0004936635963 0.0003659686304 5.99992734e-05
       vertex 0.0004997170763 0.0003303328704 5.997121116e-05
    endloop
  endfacet
  facet normal -0.9836685133 -0.1799886206 -0.0005935732731
    outer loop
       vertex 0.0004997170763 0.0003303328704 5.997121116e-05
       vertex 0.0004996926875 0.0003303341509 0.0001
       vertex 0.0004933737227 0.0003648683714 0.0001
    endloop
  endfacet
  facet normal -0.7439133341 -0.6678535556 -0.02376088642
    outer loop
       vertex 0.0004936635963 0.0003659686304 5.99992734e-05
       vertex 0.0004933737227 0.0003648683714 0.0001
       vertex 0.0004525073531 0.0004103888856 0.0001
    endloop
  endfacet
  facet normal -0.7335645252 -0.6796198092 -4.686510006e-05
    outer loop
       vertex 0.0004525073531 0.0004103888856 0.0001
       vertex 0.0004525032423 0.0004103960813 5.999574932e-05
       vertex 0.0004936635963 0.0003659686304 5.99992734e-05
    endloop
  endfacet
  facet normal -0.7071127174 -0.7071008429 -5.452637006e-05
    outer loop
       vertex 0.0004109030706 0.0004519969516 5.999574933e-05
       vertex 0.0004525032423 0.0004103960813 5.999574932e-05
       vertex 0.0004525073531 0.0004103888856 0.0001
    endloop
  endfacet
  facet normal -0.7071075205 -0.7071060388 -6.533530611e-05
    outer loop
       vertex 0.0004525073531 0.0004103888856 0.0001
       vertex 0.0004108936815 0.0004520026444 0.0001
       vertex 0.0004109030706 0.0004519969516 5.999574933e-05
    endloop
  endfacet
  facet normal 0.6696191913 -0.7423397536 -0.02327721902
    outer loop
       vertex 0.000133618551 0.0004933941836 6.000396061e-05
       vertex 0.0001347079333 0.0004931227105 0.0001
       vertex 8.911407852e-05 0.0004519952887 0.0001
    endloop
  endfacet
  facet normal 0.6810355764 -0.7322503169 -0.0001306339466
    outer loop
       vertex 8.911407852e-05 0.0004519952887 0.0001
       vertex 8.910353909e-05 0.0004519926232 5.999574611e-05
       vertex 0.000133618551 0.0004933941836 6.000396061e-05
    endloop
  endfacet
  facet normal 0.1756503056 -0.9843858525 -0.01146575061
    outer loop
       vertex 0.0001347079333 0.0004931227105 0.0001
       vertex 0.000133618551 0.0004933941836 6.000396061e-05
       vertex 0.0001691688711 0.0004997380311 5.997176565e-05
    endloop
  endfacet
  facet normal 0.1873858098 -0.9822858684 -0.001015413334
    outer loop
       vertex 0.0001691688711 0.0004997380311 5.997176565e-05
       vertex 0.0001693377489 0.0004997288689 0.0001
       vertex 0.0001347079333 0.0004931227105 0.0001
    endloop
  endfacet
  facet normal 1.588350466e-07 -0.9999999738 -0.0002288940977
    outer loop
       vertex 0.0001693377489 0.0004997288689 0.0001
       vertex 0.0001691688711 0.0004997380311 5.997176565e-05
       vertex 0.0002086173994 0.0004997380311 5.999913992e-05
    endloop
  endfacet
  facet normal 0.0002331485359 -0.9999999728 -1.051663803e-07
    outer loop
       vertex 0.0002086173994 0.0004997380311 5.999913992e-05
       vertex 0.0002086354426 0.0004997380311 0.0001
       vertex 0.0001693377489 0.0004997288689 0.0001
    endloop
  endfacet
  facet normal 0 -1 -0
    outer loop
       vertex 0.0002086354426 0.0004997380311 0.0001
       vertex 0.0002086173994 0.0004997380311 5.999913992e-05
       vertex 0.00025 0.0004997380311 6.000346455e-05
    endloop
  endfacet
  facet normal 0 -1 0
    outer loop
       vertex 0.00025 0.0004997380311 6.000346455e-05
       vertex 0.00025 0.0004997380311 0.0001
       vertex 0.0002086354426 0.0004997380311 0.0001
    endloop
  endfacet
  facet normal -0 -1 0
    outer loop
       vertex 0.0002913645574 0.0004997380311 0.0001
       vertex 0.00025 0.0004997380311 0.0001
       vertex 0.00025 0.0004997380311 6.000346455e-05
    endloop
  endfacet
  facet normal 0 -1 0
    outer loop
       vertex 0.00025 0.0004997380311 6.000346455e-05
       vertex 0.0002913826006 0.0004997380311 5.999914102e-05
       vertex 0.0002913645574 0.0004997380311 0.0001
    endloop
  endfacet
  facet normal -0.0005254064003 -0.9999996041 -0.0007181229622
    outer loop
       vertex 0.0002913826006 0.0004997380311 5.999914102e-05
       vertex 0.0003306385479 0.0004997174256 5.997152163e-05
       vertex 0.0003306526687 0.0004996886728 0.0001
    endloop
  endfacet
  facet normal -0.001256315445 -0.9999992108 -5.666866018e-07
    outer loop
       vertex 0.0003306526687 0.0004996886728 0.0001
       vertex 0.0002913645574 0.0004997380311 0.0001
       vertex 0.0002913826006 0.0004997380311 5.999914102e-05
    endloop
  endfacet
  facet normal -0.6788187898 -0.7343058271 -5.482520607e-05
    outer loop
       vertex 0.0003663531972 0.0004931804609 6.000100257e-05
       vertex 0.0004109030706 0.0004519969516 5.999574933e-05
       vertex 0.0004108936815 0.0004520026444 0.0001
    endloop
  endfacet
  facet normal -0.6674560511 -0.7442942024 -0.02299043427
    outer loop
       vertex 0.0004108936815 0.0004520026444 0.0001
       vertex 0.000365268682 0.0004929174895 0.0001
       vertex 0.0003663531972 0.0004931804609 6.000100257e-05
    endloop
  endfacet
  facet normal -0.1919702002 -0.9814005483 -0.0006372273421
    outer loop
       vertex 0.000365268682 0.0004929174895 0.0001
       vertex 0.0003306526687 0.0004996886728 0.0001
       vertex 0.0003306385479 0.0004997174256 5.997152163e-05
    endloop
  endfacet
  facet normal -0.1800215278 -0.9835972147 -0.01134763492
    outer loop
       vertex 0.0003306385479 0.0004997174256 5.997152163e-05
       vertex 0.0003663531972 0.0004931804609 6.000100257e-05
       vertex 0.000365268682 0.0004929174895 0.0001
    endloop
  endfacet
endsolid movingWalls
